G75*
%MOIN*%
%OFA0B0*%
%FSLAX25Y25*%
%IPPOS*%
%LPD*%
%AMOC8*
5,1,8,0,0,1.08239X$1,22.5*
%
%ADD10C,0.00600*%
%ADD11C,0.00800*%
D10*
X0042039Y0094467D02*
X0041471Y0095034D01*
X0041471Y0096168D01*
X0042039Y0096735D01*
X0043173Y0096735D01*
X0043740Y0096168D01*
X0043740Y0095034D01*
X0043173Y0094467D01*
X0042039Y0094467D01*
X0045155Y0096735D02*
X0046289Y0094467D01*
X0047423Y0096735D01*
X0048791Y0096735D02*
X0049358Y0096735D01*
X0050492Y0095601D01*
X0050492Y0094467D02*
X0050492Y0096735D01*
X0051907Y0096168D02*
X0051907Y0095601D01*
X0054176Y0095601D01*
X0054176Y0095034D02*
X0054176Y0096168D01*
X0053608Y0096735D01*
X0052474Y0096735D01*
X0051907Y0096168D01*
X0053608Y0094467D02*
X0054176Y0095034D01*
X0053608Y0094467D02*
X0052474Y0094467D01*
X0055590Y0095034D02*
X0056157Y0094467D01*
X0057292Y0094467D01*
X0057859Y0095034D01*
X0057292Y0096168D02*
X0056157Y0096168D01*
X0055590Y0095601D01*
X0055590Y0095034D01*
X0057292Y0096168D02*
X0057859Y0096735D01*
X0057859Y0097302D01*
X0057292Y0097870D01*
X0056157Y0097870D01*
X0055590Y0097302D01*
X0062956Y0097870D02*
X0065225Y0097870D01*
X0065225Y0096168D01*
X0064091Y0096735D01*
X0063524Y0096735D01*
X0062956Y0096168D01*
X0062956Y0095034D01*
X0063524Y0094467D01*
X0064658Y0094467D01*
X0065225Y0095034D01*
X0066640Y0095034D02*
X0067207Y0094467D01*
X0068341Y0094467D01*
X0068908Y0095034D01*
X0068908Y0095601D01*
X0068341Y0096168D01*
X0067207Y0096168D01*
X0066640Y0095601D01*
X0066640Y0095034D01*
X0067207Y0096168D02*
X0066640Y0096735D01*
X0066640Y0097302D01*
X0067207Y0097870D01*
X0068341Y0097870D01*
X0068908Y0097302D01*
X0068908Y0096735D01*
X0068341Y0096168D01*
X0074006Y0096168D02*
X0074006Y0095601D01*
X0076274Y0095601D01*
X0076274Y0095034D02*
X0076274Y0096168D01*
X0075707Y0096735D01*
X0074573Y0096735D01*
X0074006Y0096168D01*
X0075707Y0094467D02*
X0076274Y0095034D01*
X0075707Y0094467D02*
X0074573Y0094467D01*
X0077596Y0094467D02*
X0078730Y0094467D01*
X0078163Y0094467D02*
X0078163Y0096735D01*
X0078730Y0096735D01*
X0078163Y0097870D02*
X0078163Y0098437D01*
X0080144Y0096735D02*
X0082413Y0094467D01*
X0083734Y0094467D02*
X0084868Y0094467D01*
X0084301Y0094467D02*
X0084301Y0096735D01*
X0084868Y0096735D01*
X0084301Y0097870D02*
X0084301Y0098437D01*
X0086283Y0097302D02*
X0086283Y0096168D01*
X0086850Y0095601D01*
X0088552Y0095601D01*
X0088552Y0094467D02*
X0088552Y0097870D01*
X0086850Y0097870D01*
X0086283Y0097302D01*
X0082413Y0096735D02*
X0080144Y0094467D01*
X0097332Y0095601D02*
X0099601Y0095601D01*
X0099601Y0095034D02*
X0099601Y0096168D01*
X0099034Y0096735D01*
X0097900Y0096735D01*
X0097332Y0096168D01*
X0097332Y0095601D01*
X0097900Y0094467D02*
X0099034Y0094467D01*
X0099601Y0095034D01*
X0100922Y0094467D02*
X0102056Y0094467D01*
X0101489Y0094467D02*
X0101489Y0097870D01*
X0102056Y0097870D01*
X0103471Y0096168D02*
X0104038Y0096735D01*
X0105740Y0096735D01*
X0105740Y0097870D02*
X0105740Y0094467D01*
X0104038Y0094467D01*
X0103471Y0095034D01*
X0103471Y0096168D01*
X0107154Y0096168D02*
X0107154Y0094467D01*
X0108856Y0094467D01*
X0109423Y0095034D01*
X0108856Y0095601D01*
X0107154Y0095601D01*
X0107154Y0096168D02*
X0107721Y0096735D01*
X0108856Y0096735D01*
X0110791Y0096735D02*
X0112492Y0095601D01*
X0110791Y0094467D01*
X0112492Y0094467D02*
X0112492Y0097870D01*
X0113907Y0096735D02*
X0115608Y0096735D01*
X0116175Y0096168D01*
X0116175Y0095034D01*
X0115608Y0094467D01*
X0113907Y0094467D01*
X0117590Y0094467D02*
X0117590Y0096168D01*
X0118157Y0096735D01*
X0119291Y0096735D01*
X0119291Y0095601D02*
X0117590Y0095601D01*
X0117590Y0094467D02*
X0119291Y0094467D01*
X0119858Y0095034D01*
X0119291Y0095601D01*
X0121273Y0096168D02*
X0123541Y0096168D01*
X0123541Y0094467D02*
X0123541Y0097870D01*
X0121273Y0097870D02*
X0121273Y0094467D01*
X0128592Y0096735D02*
X0129160Y0096735D01*
X0130294Y0095601D01*
X0130294Y0094467D02*
X0130294Y0096735D01*
X0131708Y0096168D02*
X0131708Y0095601D01*
X0133977Y0095601D01*
X0133977Y0095034D02*
X0133977Y0096168D01*
X0133410Y0096735D01*
X0132276Y0096735D01*
X0131708Y0096168D01*
X0133410Y0094467D02*
X0133977Y0095034D01*
X0133410Y0094467D02*
X0132276Y0094467D01*
X0135392Y0095034D02*
X0135959Y0094467D01*
X0137660Y0094467D01*
X0137093Y0095601D02*
X0135959Y0095601D01*
X0135392Y0095034D01*
X0135392Y0096735D02*
X0137093Y0096735D01*
X0137660Y0096168D01*
X0137093Y0095601D01*
X0139075Y0095034D02*
X0139642Y0094467D01*
X0140776Y0094467D01*
X0141343Y0095034D01*
X0141343Y0097870D01*
X0139075Y0097870D02*
X0139075Y0095034D01*
D11*
X0109971Y0068270D02*
X0109971Y0064067D01*
X0109271Y0066168D02*
X0112073Y0066168D01*
X0109971Y0068270D01*
X0113874Y0067570D02*
X0113874Y0066869D01*
X0114575Y0066168D01*
X0115976Y0066168D01*
X0116677Y0066869D01*
X0116677Y0067570D01*
X0115976Y0068270D01*
X0114575Y0068270D01*
X0113874Y0067570D01*
X0114575Y0066168D02*
X0113874Y0065468D01*
X0113874Y0064767D01*
X0114575Y0064067D01*
X0115976Y0064067D01*
X0116677Y0064767D01*
X0116677Y0065468D01*
X0115976Y0066168D01*
X0118478Y0066869D02*
X0118478Y0063366D01*
X0119179Y0062665D01*
X0119880Y0062665D01*
X0120580Y0064067D02*
X0118478Y0064067D01*
X0120580Y0064067D02*
X0121281Y0064767D01*
X0121281Y0066869D01*
X0123082Y0066168D02*
X0123082Y0064067D01*
X0123082Y0066168D02*
X0123783Y0066869D01*
X0125885Y0066869D01*
X0125885Y0064067D01*
X0127553Y0064067D02*
X0128954Y0064067D01*
X0128253Y0064067D02*
X0128253Y0066869D01*
X0128954Y0066869D01*
X0128253Y0068270D02*
X0128253Y0068971D01*
X0130622Y0066869D02*
X0132023Y0066869D01*
X0131323Y0067570D02*
X0131323Y0064767D01*
X0130622Y0064067D01*
X0135226Y0064067D02*
X0135226Y0068270D01*
X0136627Y0068270D02*
X0133825Y0068270D01*
X0138429Y0066869D02*
X0138429Y0064067D01*
X0141231Y0064067D02*
X0141231Y0066869D01*
X0139830Y0068270D01*
X0138429Y0066869D01*
X0138429Y0066168D02*
X0141231Y0066168D01*
M02*
