%
M48
M72
T01C0.0236
T02C0.0276
T03C0.0320
T04C0.0400
T05C0.0800
T06C0.1250
%
T01
X5975Y4617
X6600Y5367
X8100Y7242
T02
X16100Y6117
X16100Y5117
T03
X14600Y5117
X13600Y5117
X12600Y5117
X11600Y5117
X10600Y5117
X9600Y5117
X8600Y5117
X8600Y8117
X9600Y8117
X10600Y8117
X11600Y8117
X12600Y8117
X13600Y8117
X14600Y8117
T04
X17100Y6617
X17100Y3617
X14600Y3117
X13600Y3117
X12600Y3117
X11600Y3117
X10600Y3117
X9600Y3117
X8600Y3117
X7600Y3117
X6600Y3117
X5600Y3117
X4600Y3117
X3600Y3117
X3600Y2117
X4600Y2117
X5600Y2117
X6600Y2117
X7600Y2117
X8600Y2117
X9600Y2117
X10600Y2117
X11600Y2117
X12600Y2117
X13600Y2117
X14600Y2117
X14600Y1117
X13600Y1117
X12600Y1117
X11600Y1117
X10600Y1117
X9600Y1117
X8600Y1117
X7600Y1117
X6600Y1117
X5600Y1117
X4600Y1117
X3600Y1117
X3630Y4852
X1070Y4852
X1070Y6632
X3630Y6632
X4850Y7117
X5850Y7117
X6850Y7117
X6850Y8117
X5850Y8117
X4850Y8117
T05
X17100Y5617
X17100Y4617
T06
X1600Y1617
X1600Y8617
X16600Y8617
X16600Y1617
M30
