G75*
%MOIN*%
%OFA0B0*%
%FSLAX25Y25*%
%IPPOS*%
%LPD*%
%AMOC8*
5,1,8,0,0,1.08239X$1,22.5*
%
%ADD10C,0.13100*%
%ADD11C,0.05400*%
%ADD12R,0.08000X0.08000*%
%ADD13OC8,0.08000*%
%ADD14C,0.08000*%
%ADD15C,0.08600*%
%ADD16C,0.07100*%
%ADD17C,0.04362*%
D10*
X0016000Y0016167D03*
X0016000Y0086167D03*
X0166000Y0086167D03*
X0166000Y0016167D03*
D11*
X0146000Y0048767D02*
X0146000Y0053567D01*
X0136000Y0053567D02*
X0136000Y0048767D01*
X0126000Y0048767D02*
X0126000Y0053567D01*
X0116000Y0053567D02*
X0116000Y0048767D01*
X0106000Y0048767D02*
X0106000Y0053567D01*
X0096000Y0053567D02*
X0096000Y0048767D01*
X0086000Y0048767D02*
X0086000Y0053567D01*
X0086000Y0078767D02*
X0086000Y0083567D01*
X0096000Y0083567D02*
X0096000Y0078767D01*
X0106000Y0078767D02*
X0106000Y0083567D01*
X0116000Y0083567D02*
X0116000Y0078767D01*
X0126000Y0078767D02*
X0126000Y0083567D01*
X0136000Y0083567D02*
X0136000Y0078767D01*
X0146000Y0078767D02*
X0146000Y0083567D01*
D12*
X0068500Y0081167D03*
D13*
X0058500Y0081167D03*
X0048500Y0081167D03*
X0048500Y0071167D03*
X0058500Y0071167D03*
X0068500Y0071167D03*
D14*
X0036300Y0066317D03*
X0010700Y0066317D03*
X0010700Y0048517D03*
X0036300Y0048517D03*
X0036000Y0031167D03*
X0046000Y0031167D03*
X0056000Y0031167D03*
X0066000Y0031167D03*
X0076000Y0031167D03*
X0086000Y0031167D03*
X0096000Y0031167D03*
X0106000Y0031167D03*
X0116000Y0031167D03*
X0126000Y0031167D03*
X0136000Y0031167D03*
X0146000Y0031167D03*
X0146000Y0021167D03*
X0136000Y0021167D03*
X0126000Y0021167D03*
X0116000Y0021167D03*
X0106000Y0021167D03*
X0096000Y0021167D03*
X0086000Y0021167D03*
X0076000Y0021167D03*
X0066000Y0021167D03*
X0056000Y0021167D03*
X0046000Y0021167D03*
X0036000Y0021167D03*
X0036000Y0011167D03*
X0046000Y0011167D03*
X0056000Y0011167D03*
X0066000Y0011167D03*
X0076000Y0011167D03*
X0086000Y0011167D03*
X0096000Y0011167D03*
X0106000Y0011167D03*
X0116000Y0011167D03*
X0126000Y0011167D03*
X0136000Y0011167D03*
X0146000Y0011167D03*
D15*
X0171000Y0036167D03*
X0171000Y0046167D03*
X0171000Y0056167D03*
X0171000Y0066167D03*
D16*
X0161000Y0061167D03*
X0161000Y0051167D03*
D17*
X0081000Y0072417D03*
X0066000Y0053667D03*
X0059750Y0046167D03*
M02*
