G75*
%MOIN*%
%OFA0B0*%
%FSLAX25Y25*%
%IPPOS*%
%LPD*%
%AMOC8*
5,1,8,0,0,1.08239X$1,22.5*
%
%ADD10C,0.00000*%
%ADD11C,0.04800*%
%ADD12R,0.07400X0.07400*%
%ADD13OC8,0.07400*%
%ADD14C,0.07400*%
%ADD15C,0.08000*%
%ADD16C,0.06500*%
%ADD17C,0.03200*%
%ADD18C,0.01200*%
%ADD19C,0.02400*%
%ADD20C,0.03762*%
D10*
X0016000Y0001167D02*
X0166000Y0001167D01*
X0159750Y0016167D02*
X0159752Y0016325D01*
X0159758Y0016482D01*
X0159768Y0016640D01*
X0159782Y0016797D01*
X0159800Y0016953D01*
X0159821Y0017110D01*
X0159847Y0017265D01*
X0159877Y0017420D01*
X0159910Y0017574D01*
X0159948Y0017727D01*
X0159989Y0017880D01*
X0160034Y0018031D01*
X0160083Y0018181D01*
X0160136Y0018329D01*
X0160192Y0018477D01*
X0160253Y0018622D01*
X0160316Y0018767D01*
X0160384Y0018909D01*
X0160455Y0019050D01*
X0160529Y0019189D01*
X0160607Y0019326D01*
X0160689Y0019461D01*
X0160773Y0019594D01*
X0160862Y0019725D01*
X0160953Y0019853D01*
X0161048Y0019980D01*
X0161145Y0020103D01*
X0161246Y0020225D01*
X0161350Y0020343D01*
X0161457Y0020459D01*
X0161567Y0020572D01*
X0161679Y0020683D01*
X0161795Y0020790D01*
X0161913Y0020895D01*
X0162033Y0020997D01*
X0162156Y0021095D01*
X0162282Y0021191D01*
X0162410Y0021283D01*
X0162540Y0021372D01*
X0162672Y0021458D01*
X0162807Y0021540D01*
X0162944Y0021619D01*
X0163082Y0021694D01*
X0163222Y0021766D01*
X0163365Y0021834D01*
X0163508Y0021899D01*
X0163654Y0021960D01*
X0163801Y0022017D01*
X0163949Y0022071D01*
X0164099Y0022121D01*
X0164249Y0022167D01*
X0164401Y0022209D01*
X0164554Y0022248D01*
X0164708Y0022282D01*
X0164863Y0022313D01*
X0165018Y0022339D01*
X0165174Y0022362D01*
X0165331Y0022381D01*
X0165488Y0022396D01*
X0165645Y0022407D01*
X0165803Y0022414D01*
X0165961Y0022417D01*
X0166118Y0022416D01*
X0166276Y0022411D01*
X0166433Y0022402D01*
X0166591Y0022389D01*
X0166747Y0022372D01*
X0166904Y0022351D01*
X0167059Y0022327D01*
X0167214Y0022298D01*
X0167369Y0022265D01*
X0167522Y0022229D01*
X0167675Y0022188D01*
X0167826Y0022144D01*
X0167976Y0022096D01*
X0168125Y0022045D01*
X0168273Y0021989D01*
X0168419Y0021930D01*
X0168564Y0021867D01*
X0168707Y0021800D01*
X0168848Y0021730D01*
X0168987Y0021657D01*
X0169125Y0021580D01*
X0169261Y0021499D01*
X0169394Y0021415D01*
X0169525Y0021328D01*
X0169654Y0021237D01*
X0169781Y0021143D01*
X0169906Y0021046D01*
X0170027Y0020946D01*
X0170147Y0020843D01*
X0170263Y0020737D01*
X0170377Y0020628D01*
X0170489Y0020516D01*
X0170597Y0020402D01*
X0170702Y0020284D01*
X0170805Y0020164D01*
X0170904Y0020042D01*
X0171000Y0019917D01*
X0171093Y0019789D01*
X0171183Y0019660D01*
X0171269Y0019528D01*
X0171353Y0019394D01*
X0171432Y0019258D01*
X0171509Y0019120D01*
X0171581Y0018980D01*
X0171650Y0018838D01*
X0171716Y0018695D01*
X0171778Y0018550D01*
X0171836Y0018403D01*
X0171891Y0018255D01*
X0171942Y0018106D01*
X0171989Y0017955D01*
X0172032Y0017804D01*
X0172071Y0017651D01*
X0172107Y0017497D01*
X0172138Y0017343D01*
X0172166Y0017188D01*
X0172190Y0017032D01*
X0172210Y0016875D01*
X0172226Y0016718D01*
X0172238Y0016561D01*
X0172246Y0016404D01*
X0172250Y0016246D01*
X0172250Y0016088D01*
X0172246Y0015930D01*
X0172238Y0015773D01*
X0172226Y0015616D01*
X0172210Y0015459D01*
X0172190Y0015302D01*
X0172166Y0015146D01*
X0172138Y0014991D01*
X0172107Y0014837D01*
X0172071Y0014683D01*
X0172032Y0014530D01*
X0171989Y0014379D01*
X0171942Y0014228D01*
X0171891Y0014079D01*
X0171836Y0013931D01*
X0171778Y0013784D01*
X0171716Y0013639D01*
X0171650Y0013496D01*
X0171581Y0013354D01*
X0171509Y0013214D01*
X0171432Y0013076D01*
X0171353Y0012940D01*
X0171269Y0012806D01*
X0171183Y0012674D01*
X0171093Y0012545D01*
X0171000Y0012417D01*
X0170904Y0012292D01*
X0170805Y0012170D01*
X0170702Y0012050D01*
X0170597Y0011932D01*
X0170489Y0011818D01*
X0170377Y0011706D01*
X0170263Y0011597D01*
X0170147Y0011491D01*
X0170027Y0011388D01*
X0169906Y0011288D01*
X0169781Y0011191D01*
X0169654Y0011097D01*
X0169525Y0011006D01*
X0169394Y0010919D01*
X0169261Y0010835D01*
X0169125Y0010754D01*
X0168987Y0010677D01*
X0168848Y0010604D01*
X0168707Y0010534D01*
X0168564Y0010467D01*
X0168419Y0010404D01*
X0168273Y0010345D01*
X0168125Y0010289D01*
X0167976Y0010238D01*
X0167826Y0010190D01*
X0167675Y0010146D01*
X0167522Y0010105D01*
X0167369Y0010069D01*
X0167214Y0010036D01*
X0167059Y0010007D01*
X0166904Y0009983D01*
X0166747Y0009962D01*
X0166591Y0009945D01*
X0166433Y0009932D01*
X0166276Y0009923D01*
X0166118Y0009918D01*
X0165961Y0009917D01*
X0165803Y0009920D01*
X0165645Y0009927D01*
X0165488Y0009938D01*
X0165331Y0009953D01*
X0165174Y0009972D01*
X0165018Y0009995D01*
X0164863Y0010021D01*
X0164708Y0010052D01*
X0164554Y0010086D01*
X0164401Y0010125D01*
X0164249Y0010167D01*
X0164099Y0010213D01*
X0163949Y0010263D01*
X0163801Y0010317D01*
X0163654Y0010374D01*
X0163508Y0010435D01*
X0163365Y0010500D01*
X0163222Y0010568D01*
X0163082Y0010640D01*
X0162944Y0010715D01*
X0162807Y0010794D01*
X0162672Y0010876D01*
X0162540Y0010962D01*
X0162410Y0011051D01*
X0162282Y0011143D01*
X0162156Y0011239D01*
X0162033Y0011337D01*
X0161913Y0011439D01*
X0161795Y0011544D01*
X0161679Y0011651D01*
X0161567Y0011762D01*
X0161457Y0011875D01*
X0161350Y0011991D01*
X0161246Y0012109D01*
X0161145Y0012231D01*
X0161048Y0012354D01*
X0160953Y0012481D01*
X0160862Y0012609D01*
X0160773Y0012740D01*
X0160689Y0012873D01*
X0160607Y0013008D01*
X0160529Y0013145D01*
X0160455Y0013284D01*
X0160384Y0013425D01*
X0160316Y0013567D01*
X0160253Y0013712D01*
X0160192Y0013857D01*
X0160136Y0014005D01*
X0160083Y0014153D01*
X0160034Y0014303D01*
X0159989Y0014454D01*
X0159948Y0014607D01*
X0159910Y0014760D01*
X0159877Y0014914D01*
X0159847Y0015069D01*
X0159821Y0015224D01*
X0159800Y0015381D01*
X0159782Y0015537D01*
X0159768Y0015694D01*
X0159758Y0015852D01*
X0159752Y0016009D01*
X0159750Y0016167D01*
X0166000Y0001167D02*
X0166362Y0001171D01*
X0166725Y0001185D01*
X0167087Y0001206D01*
X0167448Y0001237D01*
X0167808Y0001276D01*
X0168167Y0001324D01*
X0168525Y0001381D01*
X0168882Y0001446D01*
X0169237Y0001520D01*
X0169590Y0001603D01*
X0169941Y0001694D01*
X0170289Y0001793D01*
X0170635Y0001901D01*
X0170979Y0002017D01*
X0171319Y0002142D01*
X0171656Y0002274D01*
X0171990Y0002415D01*
X0172321Y0002564D01*
X0172648Y0002721D01*
X0172971Y0002885D01*
X0173290Y0003057D01*
X0173604Y0003237D01*
X0173915Y0003425D01*
X0174220Y0003620D01*
X0174521Y0003822D01*
X0174817Y0004032D01*
X0175107Y0004248D01*
X0175393Y0004472D01*
X0175673Y0004702D01*
X0175947Y0004939D01*
X0176215Y0005183D01*
X0176478Y0005433D01*
X0176734Y0005689D01*
X0176984Y0005952D01*
X0177228Y0006220D01*
X0177465Y0006494D01*
X0177695Y0006774D01*
X0177919Y0007060D01*
X0178135Y0007350D01*
X0178345Y0007646D01*
X0178547Y0007947D01*
X0178742Y0008252D01*
X0178930Y0008563D01*
X0179110Y0008877D01*
X0179282Y0009196D01*
X0179446Y0009519D01*
X0179603Y0009846D01*
X0179752Y0010177D01*
X0179893Y0010511D01*
X0180025Y0010848D01*
X0180150Y0011188D01*
X0180266Y0011532D01*
X0180374Y0011878D01*
X0180473Y0012226D01*
X0180564Y0012577D01*
X0180647Y0012930D01*
X0180721Y0013285D01*
X0180786Y0013642D01*
X0180843Y0014000D01*
X0180891Y0014359D01*
X0180930Y0014719D01*
X0180961Y0015080D01*
X0180982Y0015442D01*
X0180996Y0015805D01*
X0181000Y0016167D01*
X0181000Y0086167D01*
X0159750Y0086167D02*
X0159752Y0086325D01*
X0159758Y0086482D01*
X0159768Y0086640D01*
X0159782Y0086797D01*
X0159800Y0086953D01*
X0159821Y0087110D01*
X0159847Y0087265D01*
X0159877Y0087420D01*
X0159910Y0087574D01*
X0159948Y0087727D01*
X0159989Y0087880D01*
X0160034Y0088031D01*
X0160083Y0088181D01*
X0160136Y0088329D01*
X0160192Y0088477D01*
X0160253Y0088622D01*
X0160316Y0088767D01*
X0160384Y0088909D01*
X0160455Y0089050D01*
X0160529Y0089189D01*
X0160607Y0089326D01*
X0160689Y0089461D01*
X0160773Y0089594D01*
X0160862Y0089725D01*
X0160953Y0089853D01*
X0161048Y0089980D01*
X0161145Y0090103D01*
X0161246Y0090225D01*
X0161350Y0090343D01*
X0161457Y0090459D01*
X0161567Y0090572D01*
X0161679Y0090683D01*
X0161795Y0090790D01*
X0161913Y0090895D01*
X0162033Y0090997D01*
X0162156Y0091095D01*
X0162282Y0091191D01*
X0162410Y0091283D01*
X0162540Y0091372D01*
X0162672Y0091458D01*
X0162807Y0091540D01*
X0162944Y0091619D01*
X0163082Y0091694D01*
X0163222Y0091766D01*
X0163365Y0091834D01*
X0163508Y0091899D01*
X0163654Y0091960D01*
X0163801Y0092017D01*
X0163949Y0092071D01*
X0164099Y0092121D01*
X0164249Y0092167D01*
X0164401Y0092209D01*
X0164554Y0092248D01*
X0164708Y0092282D01*
X0164863Y0092313D01*
X0165018Y0092339D01*
X0165174Y0092362D01*
X0165331Y0092381D01*
X0165488Y0092396D01*
X0165645Y0092407D01*
X0165803Y0092414D01*
X0165961Y0092417D01*
X0166118Y0092416D01*
X0166276Y0092411D01*
X0166433Y0092402D01*
X0166591Y0092389D01*
X0166747Y0092372D01*
X0166904Y0092351D01*
X0167059Y0092327D01*
X0167214Y0092298D01*
X0167369Y0092265D01*
X0167522Y0092229D01*
X0167675Y0092188D01*
X0167826Y0092144D01*
X0167976Y0092096D01*
X0168125Y0092045D01*
X0168273Y0091989D01*
X0168419Y0091930D01*
X0168564Y0091867D01*
X0168707Y0091800D01*
X0168848Y0091730D01*
X0168987Y0091657D01*
X0169125Y0091580D01*
X0169261Y0091499D01*
X0169394Y0091415D01*
X0169525Y0091328D01*
X0169654Y0091237D01*
X0169781Y0091143D01*
X0169906Y0091046D01*
X0170027Y0090946D01*
X0170147Y0090843D01*
X0170263Y0090737D01*
X0170377Y0090628D01*
X0170489Y0090516D01*
X0170597Y0090402D01*
X0170702Y0090284D01*
X0170805Y0090164D01*
X0170904Y0090042D01*
X0171000Y0089917D01*
X0171093Y0089789D01*
X0171183Y0089660D01*
X0171269Y0089528D01*
X0171353Y0089394D01*
X0171432Y0089258D01*
X0171509Y0089120D01*
X0171581Y0088980D01*
X0171650Y0088838D01*
X0171716Y0088695D01*
X0171778Y0088550D01*
X0171836Y0088403D01*
X0171891Y0088255D01*
X0171942Y0088106D01*
X0171989Y0087955D01*
X0172032Y0087804D01*
X0172071Y0087651D01*
X0172107Y0087497D01*
X0172138Y0087343D01*
X0172166Y0087188D01*
X0172190Y0087032D01*
X0172210Y0086875D01*
X0172226Y0086718D01*
X0172238Y0086561D01*
X0172246Y0086404D01*
X0172250Y0086246D01*
X0172250Y0086088D01*
X0172246Y0085930D01*
X0172238Y0085773D01*
X0172226Y0085616D01*
X0172210Y0085459D01*
X0172190Y0085302D01*
X0172166Y0085146D01*
X0172138Y0084991D01*
X0172107Y0084837D01*
X0172071Y0084683D01*
X0172032Y0084530D01*
X0171989Y0084379D01*
X0171942Y0084228D01*
X0171891Y0084079D01*
X0171836Y0083931D01*
X0171778Y0083784D01*
X0171716Y0083639D01*
X0171650Y0083496D01*
X0171581Y0083354D01*
X0171509Y0083214D01*
X0171432Y0083076D01*
X0171353Y0082940D01*
X0171269Y0082806D01*
X0171183Y0082674D01*
X0171093Y0082545D01*
X0171000Y0082417D01*
X0170904Y0082292D01*
X0170805Y0082170D01*
X0170702Y0082050D01*
X0170597Y0081932D01*
X0170489Y0081818D01*
X0170377Y0081706D01*
X0170263Y0081597D01*
X0170147Y0081491D01*
X0170027Y0081388D01*
X0169906Y0081288D01*
X0169781Y0081191D01*
X0169654Y0081097D01*
X0169525Y0081006D01*
X0169394Y0080919D01*
X0169261Y0080835D01*
X0169125Y0080754D01*
X0168987Y0080677D01*
X0168848Y0080604D01*
X0168707Y0080534D01*
X0168564Y0080467D01*
X0168419Y0080404D01*
X0168273Y0080345D01*
X0168125Y0080289D01*
X0167976Y0080238D01*
X0167826Y0080190D01*
X0167675Y0080146D01*
X0167522Y0080105D01*
X0167369Y0080069D01*
X0167214Y0080036D01*
X0167059Y0080007D01*
X0166904Y0079983D01*
X0166747Y0079962D01*
X0166591Y0079945D01*
X0166433Y0079932D01*
X0166276Y0079923D01*
X0166118Y0079918D01*
X0165961Y0079917D01*
X0165803Y0079920D01*
X0165645Y0079927D01*
X0165488Y0079938D01*
X0165331Y0079953D01*
X0165174Y0079972D01*
X0165018Y0079995D01*
X0164863Y0080021D01*
X0164708Y0080052D01*
X0164554Y0080086D01*
X0164401Y0080125D01*
X0164249Y0080167D01*
X0164099Y0080213D01*
X0163949Y0080263D01*
X0163801Y0080317D01*
X0163654Y0080374D01*
X0163508Y0080435D01*
X0163365Y0080500D01*
X0163222Y0080568D01*
X0163082Y0080640D01*
X0162944Y0080715D01*
X0162807Y0080794D01*
X0162672Y0080876D01*
X0162540Y0080962D01*
X0162410Y0081051D01*
X0162282Y0081143D01*
X0162156Y0081239D01*
X0162033Y0081337D01*
X0161913Y0081439D01*
X0161795Y0081544D01*
X0161679Y0081651D01*
X0161567Y0081762D01*
X0161457Y0081875D01*
X0161350Y0081991D01*
X0161246Y0082109D01*
X0161145Y0082231D01*
X0161048Y0082354D01*
X0160953Y0082481D01*
X0160862Y0082609D01*
X0160773Y0082740D01*
X0160689Y0082873D01*
X0160607Y0083008D01*
X0160529Y0083145D01*
X0160455Y0083284D01*
X0160384Y0083425D01*
X0160316Y0083567D01*
X0160253Y0083712D01*
X0160192Y0083857D01*
X0160136Y0084005D01*
X0160083Y0084153D01*
X0160034Y0084303D01*
X0159989Y0084454D01*
X0159948Y0084607D01*
X0159910Y0084760D01*
X0159877Y0084914D01*
X0159847Y0085069D01*
X0159821Y0085224D01*
X0159800Y0085381D01*
X0159782Y0085537D01*
X0159768Y0085694D01*
X0159758Y0085852D01*
X0159752Y0086009D01*
X0159750Y0086167D01*
X0166000Y0101167D02*
X0166362Y0101163D01*
X0166725Y0101149D01*
X0167087Y0101128D01*
X0167448Y0101097D01*
X0167808Y0101058D01*
X0168167Y0101010D01*
X0168525Y0100953D01*
X0168882Y0100888D01*
X0169237Y0100814D01*
X0169590Y0100731D01*
X0169941Y0100640D01*
X0170289Y0100541D01*
X0170635Y0100433D01*
X0170979Y0100317D01*
X0171319Y0100192D01*
X0171656Y0100060D01*
X0171990Y0099919D01*
X0172321Y0099770D01*
X0172648Y0099613D01*
X0172971Y0099449D01*
X0173290Y0099277D01*
X0173604Y0099097D01*
X0173915Y0098909D01*
X0174220Y0098714D01*
X0174521Y0098512D01*
X0174817Y0098302D01*
X0175107Y0098086D01*
X0175393Y0097862D01*
X0175673Y0097632D01*
X0175947Y0097395D01*
X0176215Y0097151D01*
X0176478Y0096901D01*
X0176734Y0096645D01*
X0176984Y0096382D01*
X0177228Y0096114D01*
X0177465Y0095840D01*
X0177695Y0095560D01*
X0177919Y0095274D01*
X0178135Y0094984D01*
X0178345Y0094688D01*
X0178547Y0094387D01*
X0178742Y0094082D01*
X0178930Y0093771D01*
X0179110Y0093457D01*
X0179282Y0093138D01*
X0179446Y0092815D01*
X0179603Y0092488D01*
X0179752Y0092157D01*
X0179893Y0091823D01*
X0180025Y0091486D01*
X0180150Y0091146D01*
X0180266Y0090802D01*
X0180374Y0090456D01*
X0180473Y0090108D01*
X0180564Y0089757D01*
X0180647Y0089404D01*
X0180721Y0089049D01*
X0180786Y0088692D01*
X0180843Y0088334D01*
X0180891Y0087975D01*
X0180930Y0087615D01*
X0180961Y0087254D01*
X0180982Y0086892D01*
X0180996Y0086529D01*
X0181000Y0086167D01*
X0166000Y0101167D02*
X0016000Y0101167D01*
X0009750Y0086167D02*
X0009752Y0086325D01*
X0009758Y0086482D01*
X0009768Y0086640D01*
X0009782Y0086797D01*
X0009800Y0086953D01*
X0009821Y0087110D01*
X0009847Y0087265D01*
X0009877Y0087420D01*
X0009910Y0087574D01*
X0009948Y0087727D01*
X0009989Y0087880D01*
X0010034Y0088031D01*
X0010083Y0088181D01*
X0010136Y0088329D01*
X0010192Y0088477D01*
X0010253Y0088622D01*
X0010316Y0088767D01*
X0010384Y0088909D01*
X0010455Y0089050D01*
X0010529Y0089189D01*
X0010607Y0089326D01*
X0010689Y0089461D01*
X0010773Y0089594D01*
X0010862Y0089725D01*
X0010953Y0089853D01*
X0011048Y0089980D01*
X0011145Y0090103D01*
X0011246Y0090225D01*
X0011350Y0090343D01*
X0011457Y0090459D01*
X0011567Y0090572D01*
X0011679Y0090683D01*
X0011795Y0090790D01*
X0011913Y0090895D01*
X0012033Y0090997D01*
X0012156Y0091095D01*
X0012282Y0091191D01*
X0012410Y0091283D01*
X0012540Y0091372D01*
X0012672Y0091458D01*
X0012807Y0091540D01*
X0012944Y0091619D01*
X0013082Y0091694D01*
X0013222Y0091766D01*
X0013365Y0091834D01*
X0013508Y0091899D01*
X0013654Y0091960D01*
X0013801Y0092017D01*
X0013949Y0092071D01*
X0014099Y0092121D01*
X0014249Y0092167D01*
X0014401Y0092209D01*
X0014554Y0092248D01*
X0014708Y0092282D01*
X0014863Y0092313D01*
X0015018Y0092339D01*
X0015174Y0092362D01*
X0015331Y0092381D01*
X0015488Y0092396D01*
X0015645Y0092407D01*
X0015803Y0092414D01*
X0015961Y0092417D01*
X0016118Y0092416D01*
X0016276Y0092411D01*
X0016433Y0092402D01*
X0016591Y0092389D01*
X0016747Y0092372D01*
X0016904Y0092351D01*
X0017059Y0092327D01*
X0017214Y0092298D01*
X0017369Y0092265D01*
X0017522Y0092229D01*
X0017675Y0092188D01*
X0017826Y0092144D01*
X0017976Y0092096D01*
X0018125Y0092045D01*
X0018273Y0091989D01*
X0018419Y0091930D01*
X0018564Y0091867D01*
X0018707Y0091800D01*
X0018848Y0091730D01*
X0018987Y0091657D01*
X0019125Y0091580D01*
X0019261Y0091499D01*
X0019394Y0091415D01*
X0019525Y0091328D01*
X0019654Y0091237D01*
X0019781Y0091143D01*
X0019906Y0091046D01*
X0020027Y0090946D01*
X0020147Y0090843D01*
X0020263Y0090737D01*
X0020377Y0090628D01*
X0020489Y0090516D01*
X0020597Y0090402D01*
X0020702Y0090284D01*
X0020805Y0090164D01*
X0020904Y0090042D01*
X0021000Y0089917D01*
X0021093Y0089789D01*
X0021183Y0089660D01*
X0021269Y0089528D01*
X0021353Y0089394D01*
X0021432Y0089258D01*
X0021509Y0089120D01*
X0021581Y0088980D01*
X0021650Y0088838D01*
X0021716Y0088695D01*
X0021778Y0088550D01*
X0021836Y0088403D01*
X0021891Y0088255D01*
X0021942Y0088106D01*
X0021989Y0087955D01*
X0022032Y0087804D01*
X0022071Y0087651D01*
X0022107Y0087497D01*
X0022138Y0087343D01*
X0022166Y0087188D01*
X0022190Y0087032D01*
X0022210Y0086875D01*
X0022226Y0086718D01*
X0022238Y0086561D01*
X0022246Y0086404D01*
X0022250Y0086246D01*
X0022250Y0086088D01*
X0022246Y0085930D01*
X0022238Y0085773D01*
X0022226Y0085616D01*
X0022210Y0085459D01*
X0022190Y0085302D01*
X0022166Y0085146D01*
X0022138Y0084991D01*
X0022107Y0084837D01*
X0022071Y0084683D01*
X0022032Y0084530D01*
X0021989Y0084379D01*
X0021942Y0084228D01*
X0021891Y0084079D01*
X0021836Y0083931D01*
X0021778Y0083784D01*
X0021716Y0083639D01*
X0021650Y0083496D01*
X0021581Y0083354D01*
X0021509Y0083214D01*
X0021432Y0083076D01*
X0021353Y0082940D01*
X0021269Y0082806D01*
X0021183Y0082674D01*
X0021093Y0082545D01*
X0021000Y0082417D01*
X0020904Y0082292D01*
X0020805Y0082170D01*
X0020702Y0082050D01*
X0020597Y0081932D01*
X0020489Y0081818D01*
X0020377Y0081706D01*
X0020263Y0081597D01*
X0020147Y0081491D01*
X0020027Y0081388D01*
X0019906Y0081288D01*
X0019781Y0081191D01*
X0019654Y0081097D01*
X0019525Y0081006D01*
X0019394Y0080919D01*
X0019261Y0080835D01*
X0019125Y0080754D01*
X0018987Y0080677D01*
X0018848Y0080604D01*
X0018707Y0080534D01*
X0018564Y0080467D01*
X0018419Y0080404D01*
X0018273Y0080345D01*
X0018125Y0080289D01*
X0017976Y0080238D01*
X0017826Y0080190D01*
X0017675Y0080146D01*
X0017522Y0080105D01*
X0017369Y0080069D01*
X0017214Y0080036D01*
X0017059Y0080007D01*
X0016904Y0079983D01*
X0016747Y0079962D01*
X0016591Y0079945D01*
X0016433Y0079932D01*
X0016276Y0079923D01*
X0016118Y0079918D01*
X0015961Y0079917D01*
X0015803Y0079920D01*
X0015645Y0079927D01*
X0015488Y0079938D01*
X0015331Y0079953D01*
X0015174Y0079972D01*
X0015018Y0079995D01*
X0014863Y0080021D01*
X0014708Y0080052D01*
X0014554Y0080086D01*
X0014401Y0080125D01*
X0014249Y0080167D01*
X0014099Y0080213D01*
X0013949Y0080263D01*
X0013801Y0080317D01*
X0013654Y0080374D01*
X0013508Y0080435D01*
X0013365Y0080500D01*
X0013222Y0080568D01*
X0013082Y0080640D01*
X0012944Y0080715D01*
X0012807Y0080794D01*
X0012672Y0080876D01*
X0012540Y0080962D01*
X0012410Y0081051D01*
X0012282Y0081143D01*
X0012156Y0081239D01*
X0012033Y0081337D01*
X0011913Y0081439D01*
X0011795Y0081544D01*
X0011679Y0081651D01*
X0011567Y0081762D01*
X0011457Y0081875D01*
X0011350Y0081991D01*
X0011246Y0082109D01*
X0011145Y0082231D01*
X0011048Y0082354D01*
X0010953Y0082481D01*
X0010862Y0082609D01*
X0010773Y0082740D01*
X0010689Y0082873D01*
X0010607Y0083008D01*
X0010529Y0083145D01*
X0010455Y0083284D01*
X0010384Y0083425D01*
X0010316Y0083567D01*
X0010253Y0083712D01*
X0010192Y0083857D01*
X0010136Y0084005D01*
X0010083Y0084153D01*
X0010034Y0084303D01*
X0009989Y0084454D01*
X0009948Y0084607D01*
X0009910Y0084760D01*
X0009877Y0084914D01*
X0009847Y0085069D01*
X0009821Y0085224D01*
X0009800Y0085381D01*
X0009782Y0085537D01*
X0009768Y0085694D01*
X0009758Y0085852D01*
X0009752Y0086009D01*
X0009750Y0086167D01*
X0001000Y0086167D02*
X0001004Y0086529D01*
X0001018Y0086892D01*
X0001039Y0087254D01*
X0001070Y0087615D01*
X0001109Y0087975D01*
X0001157Y0088334D01*
X0001214Y0088692D01*
X0001279Y0089049D01*
X0001353Y0089404D01*
X0001436Y0089757D01*
X0001527Y0090108D01*
X0001626Y0090456D01*
X0001734Y0090802D01*
X0001850Y0091146D01*
X0001975Y0091486D01*
X0002107Y0091823D01*
X0002248Y0092157D01*
X0002397Y0092488D01*
X0002554Y0092815D01*
X0002718Y0093138D01*
X0002890Y0093457D01*
X0003070Y0093771D01*
X0003258Y0094082D01*
X0003453Y0094387D01*
X0003655Y0094688D01*
X0003865Y0094984D01*
X0004081Y0095274D01*
X0004305Y0095560D01*
X0004535Y0095840D01*
X0004772Y0096114D01*
X0005016Y0096382D01*
X0005266Y0096645D01*
X0005522Y0096901D01*
X0005785Y0097151D01*
X0006053Y0097395D01*
X0006327Y0097632D01*
X0006607Y0097862D01*
X0006893Y0098086D01*
X0007183Y0098302D01*
X0007479Y0098512D01*
X0007780Y0098714D01*
X0008085Y0098909D01*
X0008396Y0099097D01*
X0008710Y0099277D01*
X0009029Y0099449D01*
X0009352Y0099613D01*
X0009679Y0099770D01*
X0010010Y0099919D01*
X0010344Y0100060D01*
X0010681Y0100192D01*
X0011021Y0100317D01*
X0011365Y0100433D01*
X0011711Y0100541D01*
X0012059Y0100640D01*
X0012410Y0100731D01*
X0012763Y0100814D01*
X0013118Y0100888D01*
X0013475Y0100953D01*
X0013833Y0101010D01*
X0014192Y0101058D01*
X0014552Y0101097D01*
X0014913Y0101128D01*
X0015275Y0101149D01*
X0015638Y0101163D01*
X0016000Y0101167D01*
X0001000Y0086167D02*
X0001000Y0016167D01*
X0009750Y0016167D02*
X0009752Y0016325D01*
X0009758Y0016482D01*
X0009768Y0016640D01*
X0009782Y0016797D01*
X0009800Y0016953D01*
X0009821Y0017110D01*
X0009847Y0017265D01*
X0009877Y0017420D01*
X0009910Y0017574D01*
X0009948Y0017727D01*
X0009989Y0017880D01*
X0010034Y0018031D01*
X0010083Y0018181D01*
X0010136Y0018329D01*
X0010192Y0018477D01*
X0010253Y0018622D01*
X0010316Y0018767D01*
X0010384Y0018909D01*
X0010455Y0019050D01*
X0010529Y0019189D01*
X0010607Y0019326D01*
X0010689Y0019461D01*
X0010773Y0019594D01*
X0010862Y0019725D01*
X0010953Y0019853D01*
X0011048Y0019980D01*
X0011145Y0020103D01*
X0011246Y0020225D01*
X0011350Y0020343D01*
X0011457Y0020459D01*
X0011567Y0020572D01*
X0011679Y0020683D01*
X0011795Y0020790D01*
X0011913Y0020895D01*
X0012033Y0020997D01*
X0012156Y0021095D01*
X0012282Y0021191D01*
X0012410Y0021283D01*
X0012540Y0021372D01*
X0012672Y0021458D01*
X0012807Y0021540D01*
X0012944Y0021619D01*
X0013082Y0021694D01*
X0013222Y0021766D01*
X0013365Y0021834D01*
X0013508Y0021899D01*
X0013654Y0021960D01*
X0013801Y0022017D01*
X0013949Y0022071D01*
X0014099Y0022121D01*
X0014249Y0022167D01*
X0014401Y0022209D01*
X0014554Y0022248D01*
X0014708Y0022282D01*
X0014863Y0022313D01*
X0015018Y0022339D01*
X0015174Y0022362D01*
X0015331Y0022381D01*
X0015488Y0022396D01*
X0015645Y0022407D01*
X0015803Y0022414D01*
X0015961Y0022417D01*
X0016118Y0022416D01*
X0016276Y0022411D01*
X0016433Y0022402D01*
X0016591Y0022389D01*
X0016747Y0022372D01*
X0016904Y0022351D01*
X0017059Y0022327D01*
X0017214Y0022298D01*
X0017369Y0022265D01*
X0017522Y0022229D01*
X0017675Y0022188D01*
X0017826Y0022144D01*
X0017976Y0022096D01*
X0018125Y0022045D01*
X0018273Y0021989D01*
X0018419Y0021930D01*
X0018564Y0021867D01*
X0018707Y0021800D01*
X0018848Y0021730D01*
X0018987Y0021657D01*
X0019125Y0021580D01*
X0019261Y0021499D01*
X0019394Y0021415D01*
X0019525Y0021328D01*
X0019654Y0021237D01*
X0019781Y0021143D01*
X0019906Y0021046D01*
X0020027Y0020946D01*
X0020147Y0020843D01*
X0020263Y0020737D01*
X0020377Y0020628D01*
X0020489Y0020516D01*
X0020597Y0020402D01*
X0020702Y0020284D01*
X0020805Y0020164D01*
X0020904Y0020042D01*
X0021000Y0019917D01*
X0021093Y0019789D01*
X0021183Y0019660D01*
X0021269Y0019528D01*
X0021353Y0019394D01*
X0021432Y0019258D01*
X0021509Y0019120D01*
X0021581Y0018980D01*
X0021650Y0018838D01*
X0021716Y0018695D01*
X0021778Y0018550D01*
X0021836Y0018403D01*
X0021891Y0018255D01*
X0021942Y0018106D01*
X0021989Y0017955D01*
X0022032Y0017804D01*
X0022071Y0017651D01*
X0022107Y0017497D01*
X0022138Y0017343D01*
X0022166Y0017188D01*
X0022190Y0017032D01*
X0022210Y0016875D01*
X0022226Y0016718D01*
X0022238Y0016561D01*
X0022246Y0016404D01*
X0022250Y0016246D01*
X0022250Y0016088D01*
X0022246Y0015930D01*
X0022238Y0015773D01*
X0022226Y0015616D01*
X0022210Y0015459D01*
X0022190Y0015302D01*
X0022166Y0015146D01*
X0022138Y0014991D01*
X0022107Y0014837D01*
X0022071Y0014683D01*
X0022032Y0014530D01*
X0021989Y0014379D01*
X0021942Y0014228D01*
X0021891Y0014079D01*
X0021836Y0013931D01*
X0021778Y0013784D01*
X0021716Y0013639D01*
X0021650Y0013496D01*
X0021581Y0013354D01*
X0021509Y0013214D01*
X0021432Y0013076D01*
X0021353Y0012940D01*
X0021269Y0012806D01*
X0021183Y0012674D01*
X0021093Y0012545D01*
X0021000Y0012417D01*
X0020904Y0012292D01*
X0020805Y0012170D01*
X0020702Y0012050D01*
X0020597Y0011932D01*
X0020489Y0011818D01*
X0020377Y0011706D01*
X0020263Y0011597D01*
X0020147Y0011491D01*
X0020027Y0011388D01*
X0019906Y0011288D01*
X0019781Y0011191D01*
X0019654Y0011097D01*
X0019525Y0011006D01*
X0019394Y0010919D01*
X0019261Y0010835D01*
X0019125Y0010754D01*
X0018987Y0010677D01*
X0018848Y0010604D01*
X0018707Y0010534D01*
X0018564Y0010467D01*
X0018419Y0010404D01*
X0018273Y0010345D01*
X0018125Y0010289D01*
X0017976Y0010238D01*
X0017826Y0010190D01*
X0017675Y0010146D01*
X0017522Y0010105D01*
X0017369Y0010069D01*
X0017214Y0010036D01*
X0017059Y0010007D01*
X0016904Y0009983D01*
X0016747Y0009962D01*
X0016591Y0009945D01*
X0016433Y0009932D01*
X0016276Y0009923D01*
X0016118Y0009918D01*
X0015961Y0009917D01*
X0015803Y0009920D01*
X0015645Y0009927D01*
X0015488Y0009938D01*
X0015331Y0009953D01*
X0015174Y0009972D01*
X0015018Y0009995D01*
X0014863Y0010021D01*
X0014708Y0010052D01*
X0014554Y0010086D01*
X0014401Y0010125D01*
X0014249Y0010167D01*
X0014099Y0010213D01*
X0013949Y0010263D01*
X0013801Y0010317D01*
X0013654Y0010374D01*
X0013508Y0010435D01*
X0013365Y0010500D01*
X0013222Y0010568D01*
X0013082Y0010640D01*
X0012944Y0010715D01*
X0012807Y0010794D01*
X0012672Y0010876D01*
X0012540Y0010962D01*
X0012410Y0011051D01*
X0012282Y0011143D01*
X0012156Y0011239D01*
X0012033Y0011337D01*
X0011913Y0011439D01*
X0011795Y0011544D01*
X0011679Y0011651D01*
X0011567Y0011762D01*
X0011457Y0011875D01*
X0011350Y0011991D01*
X0011246Y0012109D01*
X0011145Y0012231D01*
X0011048Y0012354D01*
X0010953Y0012481D01*
X0010862Y0012609D01*
X0010773Y0012740D01*
X0010689Y0012873D01*
X0010607Y0013008D01*
X0010529Y0013145D01*
X0010455Y0013284D01*
X0010384Y0013425D01*
X0010316Y0013567D01*
X0010253Y0013712D01*
X0010192Y0013857D01*
X0010136Y0014005D01*
X0010083Y0014153D01*
X0010034Y0014303D01*
X0009989Y0014454D01*
X0009948Y0014607D01*
X0009910Y0014760D01*
X0009877Y0014914D01*
X0009847Y0015069D01*
X0009821Y0015224D01*
X0009800Y0015381D01*
X0009782Y0015537D01*
X0009768Y0015694D01*
X0009758Y0015852D01*
X0009752Y0016009D01*
X0009750Y0016167D01*
X0001000Y0016167D02*
X0001004Y0015805D01*
X0001018Y0015442D01*
X0001039Y0015080D01*
X0001070Y0014719D01*
X0001109Y0014359D01*
X0001157Y0014000D01*
X0001214Y0013642D01*
X0001279Y0013285D01*
X0001353Y0012930D01*
X0001436Y0012577D01*
X0001527Y0012226D01*
X0001626Y0011878D01*
X0001734Y0011532D01*
X0001850Y0011188D01*
X0001975Y0010848D01*
X0002107Y0010511D01*
X0002248Y0010177D01*
X0002397Y0009846D01*
X0002554Y0009519D01*
X0002718Y0009196D01*
X0002890Y0008877D01*
X0003070Y0008563D01*
X0003258Y0008252D01*
X0003453Y0007947D01*
X0003655Y0007646D01*
X0003865Y0007350D01*
X0004081Y0007060D01*
X0004305Y0006774D01*
X0004535Y0006494D01*
X0004772Y0006220D01*
X0005016Y0005952D01*
X0005266Y0005689D01*
X0005522Y0005433D01*
X0005785Y0005183D01*
X0006053Y0004939D01*
X0006327Y0004702D01*
X0006607Y0004472D01*
X0006893Y0004248D01*
X0007183Y0004032D01*
X0007479Y0003822D01*
X0007780Y0003620D01*
X0008085Y0003425D01*
X0008396Y0003237D01*
X0008710Y0003057D01*
X0009029Y0002885D01*
X0009352Y0002721D01*
X0009679Y0002564D01*
X0010010Y0002415D01*
X0010344Y0002274D01*
X0010681Y0002142D01*
X0011021Y0002017D01*
X0011365Y0001901D01*
X0011711Y0001793D01*
X0012059Y0001694D01*
X0012410Y0001603D01*
X0012763Y0001520D01*
X0013118Y0001446D01*
X0013475Y0001381D01*
X0013833Y0001324D01*
X0014192Y0001276D01*
X0014552Y0001237D01*
X0014913Y0001206D01*
X0015275Y0001185D01*
X0015638Y0001171D01*
X0016000Y0001167D01*
X0167000Y0046167D02*
X0167002Y0046293D01*
X0167008Y0046419D01*
X0167018Y0046545D01*
X0167032Y0046671D01*
X0167050Y0046796D01*
X0167072Y0046920D01*
X0167097Y0047044D01*
X0167127Y0047167D01*
X0167160Y0047288D01*
X0167198Y0047409D01*
X0167239Y0047528D01*
X0167284Y0047647D01*
X0167332Y0047763D01*
X0167384Y0047878D01*
X0167440Y0047991D01*
X0167500Y0048103D01*
X0167563Y0048212D01*
X0167629Y0048320D01*
X0167698Y0048425D01*
X0167771Y0048528D01*
X0167848Y0048629D01*
X0167927Y0048727D01*
X0168009Y0048823D01*
X0168095Y0048916D01*
X0168183Y0049007D01*
X0168274Y0049094D01*
X0168368Y0049179D01*
X0168464Y0049260D01*
X0168563Y0049339D01*
X0168664Y0049414D01*
X0168768Y0049486D01*
X0168874Y0049555D01*
X0168982Y0049621D01*
X0169092Y0049683D01*
X0169204Y0049741D01*
X0169317Y0049796D01*
X0169433Y0049847D01*
X0169550Y0049895D01*
X0169668Y0049939D01*
X0169788Y0049979D01*
X0169909Y0050015D01*
X0170031Y0050048D01*
X0170154Y0050077D01*
X0170278Y0050101D01*
X0170402Y0050122D01*
X0170527Y0050139D01*
X0170653Y0050152D01*
X0170779Y0050161D01*
X0170905Y0050166D01*
X0171032Y0050167D01*
X0171158Y0050164D01*
X0171284Y0050157D01*
X0171410Y0050146D01*
X0171535Y0050131D01*
X0171660Y0050112D01*
X0171784Y0050089D01*
X0171908Y0050063D01*
X0172030Y0050032D01*
X0172152Y0049998D01*
X0172272Y0049959D01*
X0172391Y0049917D01*
X0172509Y0049872D01*
X0172625Y0049822D01*
X0172740Y0049769D01*
X0172852Y0049712D01*
X0172963Y0049652D01*
X0173072Y0049588D01*
X0173179Y0049521D01*
X0173284Y0049451D01*
X0173387Y0049377D01*
X0173487Y0049300D01*
X0173585Y0049220D01*
X0173680Y0049137D01*
X0173772Y0049051D01*
X0173862Y0048962D01*
X0173949Y0048870D01*
X0174032Y0048776D01*
X0174113Y0048679D01*
X0174191Y0048579D01*
X0174266Y0048477D01*
X0174337Y0048373D01*
X0174405Y0048266D01*
X0174469Y0048158D01*
X0174530Y0048047D01*
X0174588Y0047935D01*
X0174642Y0047821D01*
X0174692Y0047705D01*
X0174739Y0047588D01*
X0174782Y0047469D01*
X0174821Y0047349D01*
X0174857Y0047228D01*
X0174888Y0047105D01*
X0174916Y0046982D01*
X0174940Y0046858D01*
X0174960Y0046733D01*
X0174976Y0046608D01*
X0174988Y0046482D01*
X0174996Y0046356D01*
X0175000Y0046230D01*
X0175000Y0046104D01*
X0174996Y0045978D01*
X0174988Y0045852D01*
X0174976Y0045726D01*
X0174960Y0045601D01*
X0174940Y0045476D01*
X0174916Y0045352D01*
X0174888Y0045229D01*
X0174857Y0045106D01*
X0174821Y0044985D01*
X0174782Y0044865D01*
X0174739Y0044746D01*
X0174692Y0044629D01*
X0174642Y0044513D01*
X0174588Y0044399D01*
X0174530Y0044287D01*
X0174469Y0044176D01*
X0174405Y0044068D01*
X0174337Y0043961D01*
X0174266Y0043857D01*
X0174191Y0043755D01*
X0174113Y0043655D01*
X0174032Y0043558D01*
X0173949Y0043464D01*
X0173862Y0043372D01*
X0173772Y0043283D01*
X0173680Y0043197D01*
X0173585Y0043114D01*
X0173487Y0043034D01*
X0173387Y0042957D01*
X0173284Y0042883D01*
X0173179Y0042813D01*
X0173072Y0042746D01*
X0172963Y0042682D01*
X0172852Y0042622D01*
X0172740Y0042565D01*
X0172625Y0042512D01*
X0172509Y0042462D01*
X0172391Y0042417D01*
X0172272Y0042375D01*
X0172152Y0042336D01*
X0172030Y0042302D01*
X0171908Y0042271D01*
X0171784Y0042245D01*
X0171660Y0042222D01*
X0171535Y0042203D01*
X0171410Y0042188D01*
X0171284Y0042177D01*
X0171158Y0042170D01*
X0171032Y0042167D01*
X0170905Y0042168D01*
X0170779Y0042173D01*
X0170653Y0042182D01*
X0170527Y0042195D01*
X0170402Y0042212D01*
X0170278Y0042233D01*
X0170154Y0042257D01*
X0170031Y0042286D01*
X0169909Y0042319D01*
X0169788Y0042355D01*
X0169668Y0042395D01*
X0169550Y0042439D01*
X0169433Y0042487D01*
X0169317Y0042538D01*
X0169204Y0042593D01*
X0169092Y0042651D01*
X0168982Y0042713D01*
X0168874Y0042779D01*
X0168768Y0042848D01*
X0168664Y0042920D01*
X0168563Y0042995D01*
X0168464Y0043074D01*
X0168368Y0043155D01*
X0168274Y0043240D01*
X0168183Y0043327D01*
X0168095Y0043418D01*
X0168009Y0043511D01*
X0167927Y0043607D01*
X0167848Y0043705D01*
X0167771Y0043806D01*
X0167698Y0043909D01*
X0167629Y0044014D01*
X0167563Y0044122D01*
X0167500Y0044231D01*
X0167440Y0044343D01*
X0167384Y0044456D01*
X0167332Y0044571D01*
X0167284Y0044687D01*
X0167239Y0044806D01*
X0167198Y0044925D01*
X0167160Y0045046D01*
X0167127Y0045167D01*
X0167097Y0045290D01*
X0167072Y0045414D01*
X0167050Y0045538D01*
X0167032Y0045663D01*
X0167018Y0045789D01*
X0167008Y0045915D01*
X0167002Y0046041D01*
X0167000Y0046167D01*
X0167000Y0056167D02*
X0167002Y0056293D01*
X0167008Y0056419D01*
X0167018Y0056545D01*
X0167032Y0056671D01*
X0167050Y0056796D01*
X0167072Y0056920D01*
X0167097Y0057044D01*
X0167127Y0057167D01*
X0167160Y0057288D01*
X0167198Y0057409D01*
X0167239Y0057528D01*
X0167284Y0057647D01*
X0167332Y0057763D01*
X0167384Y0057878D01*
X0167440Y0057991D01*
X0167500Y0058103D01*
X0167563Y0058212D01*
X0167629Y0058320D01*
X0167698Y0058425D01*
X0167771Y0058528D01*
X0167848Y0058629D01*
X0167927Y0058727D01*
X0168009Y0058823D01*
X0168095Y0058916D01*
X0168183Y0059007D01*
X0168274Y0059094D01*
X0168368Y0059179D01*
X0168464Y0059260D01*
X0168563Y0059339D01*
X0168664Y0059414D01*
X0168768Y0059486D01*
X0168874Y0059555D01*
X0168982Y0059621D01*
X0169092Y0059683D01*
X0169204Y0059741D01*
X0169317Y0059796D01*
X0169433Y0059847D01*
X0169550Y0059895D01*
X0169668Y0059939D01*
X0169788Y0059979D01*
X0169909Y0060015D01*
X0170031Y0060048D01*
X0170154Y0060077D01*
X0170278Y0060101D01*
X0170402Y0060122D01*
X0170527Y0060139D01*
X0170653Y0060152D01*
X0170779Y0060161D01*
X0170905Y0060166D01*
X0171032Y0060167D01*
X0171158Y0060164D01*
X0171284Y0060157D01*
X0171410Y0060146D01*
X0171535Y0060131D01*
X0171660Y0060112D01*
X0171784Y0060089D01*
X0171908Y0060063D01*
X0172030Y0060032D01*
X0172152Y0059998D01*
X0172272Y0059959D01*
X0172391Y0059917D01*
X0172509Y0059872D01*
X0172625Y0059822D01*
X0172740Y0059769D01*
X0172852Y0059712D01*
X0172963Y0059652D01*
X0173072Y0059588D01*
X0173179Y0059521D01*
X0173284Y0059451D01*
X0173387Y0059377D01*
X0173487Y0059300D01*
X0173585Y0059220D01*
X0173680Y0059137D01*
X0173772Y0059051D01*
X0173862Y0058962D01*
X0173949Y0058870D01*
X0174032Y0058776D01*
X0174113Y0058679D01*
X0174191Y0058579D01*
X0174266Y0058477D01*
X0174337Y0058373D01*
X0174405Y0058266D01*
X0174469Y0058158D01*
X0174530Y0058047D01*
X0174588Y0057935D01*
X0174642Y0057821D01*
X0174692Y0057705D01*
X0174739Y0057588D01*
X0174782Y0057469D01*
X0174821Y0057349D01*
X0174857Y0057228D01*
X0174888Y0057105D01*
X0174916Y0056982D01*
X0174940Y0056858D01*
X0174960Y0056733D01*
X0174976Y0056608D01*
X0174988Y0056482D01*
X0174996Y0056356D01*
X0175000Y0056230D01*
X0175000Y0056104D01*
X0174996Y0055978D01*
X0174988Y0055852D01*
X0174976Y0055726D01*
X0174960Y0055601D01*
X0174940Y0055476D01*
X0174916Y0055352D01*
X0174888Y0055229D01*
X0174857Y0055106D01*
X0174821Y0054985D01*
X0174782Y0054865D01*
X0174739Y0054746D01*
X0174692Y0054629D01*
X0174642Y0054513D01*
X0174588Y0054399D01*
X0174530Y0054287D01*
X0174469Y0054176D01*
X0174405Y0054068D01*
X0174337Y0053961D01*
X0174266Y0053857D01*
X0174191Y0053755D01*
X0174113Y0053655D01*
X0174032Y0053558D01*
X0173949Y0053464D01*
X0173862Y0053372D01*
X0173772Y0053283D01*
X0173680Y0053197D01*
X0173585Y0053114D01*
X0173487Y0053034D01*
X0173387Y0052957D01*
X0173284Y0052883D01*
X0173179Y0052813D01*
X0173072Y0052746D01*
X0172963Y0052682D01*
X0172852Y0052622D01*
X0172740Y0052565D01*
X0172625Y0052512D01*
X0172509Y0052462D01*
X0172391Y0052417D01*
X0172272Y0052375D01*
X0172152Y0052336D01*
X0172030Y0052302D01*
X0171908Y0052271D01*
X0171784Y0052245D01*
X0171660Y0052222D01*
X0171535Y0052203D01*
X0171410Y0052188D01*
X0171284Y0052177D01*
X0171158Y0052170D01*
X0171032Y0052167D01*
X0170905Y0052168D01*
X0170779Y0052173D01*
X0170653Y0052182D01*
X0170527Y0052195D01*
X0170402Y0052212D01*
X0170278Y0052233D01*
X0170154Y0052257D01*
X0170031Y0052286D01*
X0169909Y0052319D01*
X0169788Y0052355D01*
X0169668Y0052395D01*
X0169550Y0052439D01*
X0169433Y0052487D01*
X0169317Y0052538D01*
X0169204Y0052593D01*
X0169092Y0052651D01*
X0168982Y0052713D01*
X0168874Y0052779D01*
X0168768Y0052848D01*
X0168664Y0052920D01*
X0168563Y0052995D01*
X0168464Y0053074D01*
X0168368Y0053155D01*
X0168274Y0053240D01*
X0168183Y0053327D01*
X0168095Y0053418D01*
X0168009Y0053511D01*
X0167927Y0053607D01*
X0167848Y0053705D01*
X0167771Y0053806D01*
X0167698Y0053909D01*
X0167629Y0054014D01*
X0167563Y0054122D01*
X0167500Y0054231D01*
X0167440Y0054343D01*
X0167384Y0054456D01*
X0167332Y0054571D01*
X0167284Y0054687D01*
X0167239Y0054806D01*
X0167198Y0054925D01*
X0167160Y0055046D01*
X0167127Y0055167D01*
X0167097Y0055290D01*
X0167072Y0055414D01*
X0167050Y0055538D01*
X0167032Y0055663D01*
X0167018Y0055789D01*
X0167008Y0055915D01*
X0167002Y0056041D01*
X0167000Y0056167D01*
D11*
X0146000Y0053567D02*
X0146000Y0048767D01*
X0136000Y0048767D02*
X0136000Y0053567D01*
X0126000Y0053567D02*
X0126000Y0048767D01*
X0116000Y0048767D02*
X0116000Y0053567D01*
X0106000Y0053567D02*
X0106000Y0048767D01*
X0096000Y0048767D02*
X0096000Y0053567D01*
X0086000Y0053567D02*
X0086000Y0048767D01*
X0086000Y0078767D02*
X0086000Y0083567D01*
X0096000Y0083567D02*
X0096000Y0078767D01*
X0106000Y0078767D02*
X0106000Y0083567D01*
X0116000Y0083567D02*
X0116000Y0078767D01*
X0126000Y0078767D02*
X0126000Y0083567D01*
X0136000Y0083567D02*
X0136000Y0078767D01*
X0146000Y0078767D02*
X0146000Y0083567D01*
D12*
X0068500Y0081167D03*
D13*
X0058500Y0081167D03*
X0048500Y0081167D03*
X0048500Y0071167D03*
X0058500Y0071167D03*
X0068500Y0071167D03*
D14*
X0036300Y0066317D03*
X0010700Y0066317D03*
X0010700Y0048517D03*
X0036300Y0048517D03*
X0036000Y0031167D03*
X0046000Y0031167D03*
X0056000Y0031167D03*
X0066000Y0031167D03*
X0076000Y0031167D03*
X0086000Y0031167D03*
X0096000Y0031167D03*
X0106000Y0031167D03*
X0116000Y0031167D03*
X0126000Y0031167D03*
X0136000Y0031167D03*
X0146000Y0031167D03*
X0146000Y0021167D03*
X0136000Y0021167D03*
X0126000Y0021167D03*
X0116000Y0021167D03*
X0106000Y0021167D03*
X0096000Y0021167D03*
X0086000Y0021167D03*
X0076000Y0021167D03*
X0066000Y0021167D03*
X0056000Y0021167D03*
X0046000Y0021167D03*
X0036000Y0021167D03*
X0036000Y0011167D03*
X0046000Y0011167D03*
X0056000Y0011167D03*
X0066000Y0011167D03*
X0076000Y0011167D03*
X0086000Y0011167D03*
X0096000Y0011167D03*
X0106000Y0011167D03*
X0116000Y0011167D03*
X0126000Y0011167D03*
X0136000Y0011167D03*
X0146000Y0011167D03*
D15*
X0171000Y0036167D03*
X0171000Y0066167D03*
D16*
X0161000Y0061167D03*
X0161000Y0051167D03*
D17*
X0161000Y0036167D01*
X0171000Y0036167D01*
X0161000Y0036167D02*
X0153500Y0028667D01*
X0153500Y0013667D01*
X0151000Y0011167D01*
X0146000Y0011167D01*
X0136000Y0011167D01*
X0126000Y0011167D01*
X0116000Y0011167D01*
X0106000Y0011167D01*
X0096000Y0011167D01*
X0086000Y0011167D01*
X0076000Y0011167D01*
X0066000Y0011167D01*
X0056000Y0011167D01*
X0046000Y0011167D01*
X0036000Y0011167D01*
X0031000Y0011167D01*
X0028500Y0013667D01*
X0028500Y0034917D01*
X0038500Y0044917D01*
X0036300Y0047117D01*
X0036300Y0048517D01*
X0038500Y0044917D02*
X0048500Y0054917D01*
X0048500Y0071167D01*
X0046000Y0021167D02*
X0036000Y0021167D01*
X0046000Y0021167D02*
X0056000Y0021167D01*
X0066000Y0021167D01*
X0076000Y0021167D01*
X0086000Y0021167D01*
X0096000Y0021167D01*
X0106000Y0021167D01*
X0116000Y0021167D01*
X0126000Y0021167D01*
X0136000Y0021167D01*
X0146000Y0021167D01*
X0146000Y0051167D02*
X0161000Y0051167D01*
D18*
X0116000Y0081167D02*
X0116000Y0083667D01*
X0104750Y0093667D01*
X0061000Y0093667D01*
X0048500Y0081167D01*
X0036300Y0068967D01*
X0036300Y0066317D01*
X0048500Y0081167D02*
X0053500Y0076167D01*
X0053500Y0046167D01*
X0038500Y0033217D01*
X0036000Y0031167D01*
X0086000Y0051167D02*
X0086000Y0059917D01*
X0091000Y0064917D01*
X0091000Y0086167D01*
X0088500Y0088667D01*
X0076000Y0088667D01*
X0068500Y0081167D01*
X0063500Y0076167D02*
X0083500Y0076167D01*
X0086000Y0078667D01*
X0096000Y0091167D02*
X0101000Y0086167D01*
X0101000Y0061167D01*
X0096000Y0056167D01*
X0096000Y0051167D01*
X0063500Y0076167D02*
X0058500Y0071167D01*
X0058500Y0081167D02*
X0058500Y0083667D01*
X0066000Y0091167D01*
X0096000Y0091167D01*
D19*
X0086000Y0081167D02*
X0086000Y0078667D01*
X0086000Y0067417D01*
X0079750Y0061167D01*
X0079750Y0037417D01*
X0086000Y0031167D01*
X0086000Y0041167D02*
X0096000Y0031167D01*
X0096000Y0041167D02*
X0106000Y0031167D01*
X0106000Y0041167D02*
X0116000Y0031167D01*
X0116000Y0041167D02*
X0126000Y0031167D01*
X0126000Y0041167D02*
X0136000Y0031167D01*
X0136000Y0041167D02*
X0146000Y0031167D01*
X0136000Y0041167D02*
X0136000Y0051167D01*
X0126000Y0051167D02*
X0126000Y0041167D01*
X0116000Y0041167D02*
X0116000Y0051167D01*
X0106000Y0051167D02*
X0106000Y0041167D01*
X0096000Y0041167D02*
X0096000Y0051167D01*
X0086000Y0051167D02*
X0086000Y0041167D01*
X0076000Y0031167D02*
X0073500Y0033667D01*
X0073500Y0064917D01*
X0081000Y0072417D01*
X0066000Y0053667D02*
X0066000Y0031167D01*
X0059750Y0034917D02*
X0056000Y0031167D01*
X0059750Y0034917D02*
X0059750Y0046167D01*
D20*
X0059750Y0046167D03*
X0066000Y0053667D03*
X0081000Y0072417D03*
M02*
