G75*
%MOIN*%
%OFA0B0*%
%FSLAX25Y25*%
%IPPOS*%
%LPD*%
%AMOC8*
5,1,8,0,0,1.08239X$1,22.5*
%
%ADD10C,0.00500*%
%ADD11C,0.00800*%
%ADD12C,0.01000*%
%ADD13C,0.00600*%
%ADD14C,0.00300*%
%ADD15C,0.00200*%
%ADD16C,0.00400*%
%ADD17C,0.00100*%
D10*
X0076830Y0002317D02*
X0076830Y0005019D01*
X0078181Y0005019D01*
X0078632Y0004569D01*
X0078632Y0003668D01*
X0078181Y0003217D01*
X0076830Y0003217D01*
X0079777Y0002317D02*
X0080678Y0003217D01*
X0081578Y0002317D01*
X0081578Y0005019D01*
X0082723Y0005019D02*
X0083624Y0004118D01*
X0084525Y0005019D01*
X0084525Y0002317D01*
X0082723Y0002317D02*
X0082723Y0005019D01*
X0079777Y0005019D02*
X0079777Y0002317D01*
X0175898Y0037447D02*
X0176348Y0036997D01*
X0178150Y0036997D01*
X0178600Y0037447D01*
X0178600Y0038348D01*
X0178150Y0038798D01*
X0177249Y0038798D01*
X0177249Y0037898D01*
X0176348Y0038798D02*
X0175898Y0038348D01*
X0175898Y0037447D01*
X0175898Y0039943D02*
X0178600Y0041745D01*
X0175898Y0041745D01*
X0175898Y0042890D02*
X0175898Y0044241D01*
X0176348Y0044691D01*
X0178150Y0044691D01*
X0178600Y0044241D01*
X0178600Y0042890D01*
X0175898Y0042890D01*
X0175898Y0039943D02*
X0178600Y0039943D01*
X0177699Y0056997D02*
X0175898Y0056997D01*
X0177699Y0056997D02*
X0178600Y0057898D01*
X0177699Y0058798D01*
X0175898Y0058798D01*
X0176348Y0059943D02*
X0178150Y0059943D01*
X0178600Y0060394D01*
X0178600Y0061295D01*
X0178150Y0061745D01*
X0178150Y0062890D02*
X0176348Y0062890D01*
X0175898Y0063340D01*
X0175898Y0064241D01*
X0176348Y0064691D01*
X0178150Y0064691D02*
X0178600Y0064241D01*
X0178600Y0063340D01*
X0178150Y0062890D01*
X0176348Y0061745D02*
X0175898Y0061295D01*
X0175898Y0060394D01*
X0176348Y0059943D01*
X0073500Y0088667D02*
X0073502Y0088737D01*
X0073508Y0088807D01*
X0073518Y0088876D01*
X0073531Y0088945D01*
X0073549Y0089013D01*
X0073570Y0089080D01*
X0073595Y0089145D01*
X0073624Y0089209D01*
X0073656Y0089272D01*
X0073692Y0089332D01*
X0073731Y0089390D01*
X0073773Y0089446D01*
X0073818Y0089500D01*
X0073866Y0089551D01*
X0073917Y0089599D01*
X0073971Y0089644D01*
X0074027Y0089686D01*
X0074085Y0089725D01*
X0074145Y0089761D01*
X0074208Y0089793D01*
X0074272Y0089822D01*
X0074337Y0089847D01*
X0074404Y0089868D01*
X0074472Y0089886D01*
X0074541Y0089899D01*
X0074610Y0089909D01*
X0074680Y0089915D01*
X0074750Y0089917D01*
X0074820Y0089915D01*
X0074890Y0089909D01*
X0074959Y0089899D01*
X0075028Y0089886D01*
X0075096Y0089868D01*
X0075163Y0089847D01*
X0075228Y0089822D01*
X0075292Y0089793D01*
X0075355Y0089761D01*
X0075415Y0089725D01*
X0075473Y0089686D01*
X0075529Y0089644D01*
X0075583Y0089599D01*
X0075634Y0089551D01*
X0075682Y0089500D01*
X0075727Y0089446D01*
X0075769Y0089390D01*
X0075808Y0089332D01*
X0075844Y0089272D01*
X0075876Y0089209D01*
X0075905Y0089145D01*
X0075930Y0089080D01*
X0075951Y0089013D01*
X0075969Y0088945D01*
X0075982Y0088876D01*
X0075992Y0088807D01*
X0075998Y0088737D01*
X0076000Y0088667D01*
X0075998Y0088597D01*
X0075992Y0088527D01*
X0075982Y0088458D01*
X0075969Y0088389D01*
X0075951Y0088321D01*
X0075930Y0088254D01*
X0075905Y0088189D01*
X0075876Y0088125D01*
X0075844Y0088062D01*
X0075808Y0088002D01*
X0075769Y0087944D01*
X0075727Y0087888D01*
X0075682Y0087834D01*
X0075634Y0087783D01*
X0075583Y0087735D01*
X0075529Y0087690D01*
X0075473Y0087648D01*
X0075415Y0087609D01*
X0075355Y0087573D01*
X0075292Y0087541D01*
X0075228Y0087512D01*
X0075163Y0087487D01*
X0075096Y0087466D01*
X0075028Y0087448D01*
X0074959Y0087435D01*
X0074890Y0087425D01*
X0074820Y0087419D01*
X0074750Y0087417D01*
X0074680Y0087419D01*
X0074610Y0087425D01*
X0074541Y0087435D01*
X0074472Y0087448D01*
X0074404Y0087466D01*
X0074337Y0087487D01*
X0074272Y0087512D01*
X0074208Y0087541D01*
X0074145Y0087573D01*
X0074085Y0087609D01*
X0074027Y0087648D01*
X0073971Y0087690D01*
X0073917Y0087735D01*
X0073866Y0087783D01*
X0073818Y0087834D01*
X0073773Y0087888D01*
X0073731Y0087944D01*
X0073692Y0088002D01*
X0073656Y0088062D01*
X0073624Y0088125D01*
X0073595Y0088189D01*
X0073570Y0088254D01*
X0073549Y0088321D01*
X0073531Y0088389D01*
X0073518Y0088458D01*
X0073508Y0088527D01*
X0073502Y0088597D01*
X0073500Y0088667D01*
D11*
X0081000Y0077667D02*
X0082000Y0077667D01*
X0081000Y0077667D02*
X0081000Y0054667D01*
X0082000Y0054667D01*
X0089700Y0054667D02*
X0092300Y0054667D01*
X0099700Y0054667D02*
X0102300Y0054667D01*
X0109700Y0054667D02*
X0112300Y0054667D01*
X0119700Y0054667D02*
X0122300Y0054667D01*
X0129700Y0054667D02*
X0132300Y0054667D01*
X0139700Y0054667D02*
X0142300Y0054667D01*
X0150000Y0054667D02*
X0151000Y0054667D01*
X0151000Y0062167D01*
X0150874Y0062169D01*
X0150749Y0062175D01*
X0150624Y0062185D01*
X0150499Y0062199D01*
X0150374Y0062216D01*
X0150250Y0062238D01*
X0150127Y0062263D01*
X0150005Y0062293D01*
X0149884Y0062326D01*
X0149764Y0062363D01*
X0149645Y0062403D01*
X0149528Y0062448D01*
X0149411Y0062496D01*
X0149297Y0062548D01*
X0149184Y0062603D01*
X0149073Y0062662D01*
X0148964Y0062724D01*
X0148857Y0062790D01*
X0148752Y0062859D01*
X0148649Y0062931D01*
X0148548Y0063006D01*
X0148450Y0063085D01*
X0148355Y0063167D01*
X0148262Y0063251D01*
X0148172Y0063339D01*
X0148084Y0063429D01*
X0148000Y0063522D01*
X0147918Y0063617D01*
X0147839Y0063715D01*
X0147764Y0063816D01*
X0147692Y0063919D01*
X0147623Y0064024D01*
X0147557Y0064131D01*
X0147495Y0064240D01*
X0147436Y0064351D01*
X0147381Y0064464D01*
X0147329Y0064578D01*
X0147281Y0064695D01*
X0147236Y0064812D01*
X0147196Y0064931D01*
X0147159Y0065051D01*
X0147126Y0065172D01*
X0147096Y0065294D01*
X0147071Y0065417D01*
X0147049Y0065541D01*
X0147032Y0065666D01*
X0147018Y0065791D01*
X0147008Y0065916D01*
X0147002Y0066041D01*
X0147000Y0066167D01*
X0147002Y0066293D01*
X0147008Y0066418D01*
X0147018Y0066543D01*
X0147032Y0066668D01*
X0147049Y0066793D01*
X0147071Y0066917D01*
X0147096Y0067040D01*
X0147126Y0067162D01*
X0147159Y0067283D01*
X0147196Y0067403D01*
X0147236Y0067522D01*
X0147281Y0067639D01*
X0147329Y0067756D01*
X0147381Y0067870D01*
X0147436Y0067983D01*
X0147495Y0068094D01*
X0147557Y0068203D01*
X0147623Y0068310D01*
X0147692Y0068415D01*
X0147764Y0068518D01*
X0147839Y0068619D01*
X0147918Y0068717D01*
X0148000Y0068812D01*
X0148084Y0068905D01*
X0148172Y0068995D01*
X0148262Y0069083D01*
X0148355Y0069167D01*
X0148450Y0069249D01*
X0148548Y0069328D01*
X0148649Y0069403D01*
X0148752Y0069475D01*
X0148857Y0069544D01*
X0148964Y0069610D01*
X0149073Y0069672D01*
X0149184Y0069731D01*
X0149297Y0069786D01*
X0149411Y0069838D01*
X0149528Y0069886D01*
X0149645Y0069931D01*
X0149764Y0069971D01*
X0149884Y0070008D01*
X0150005Y0070041D01*
X0150127Y0070071D01*
X0150250Y0070096D01*
X0150374Y0070118D01*
X0150499Y0070135D01*
X0150624Y0070149D01*
X0150749Y0070159D01*
X0150874Y0070165D01*
X0151000Y0070167D01*
X0151000Y0077667D01*
X0150000Y0077667D01*
X0142300Y0077667D02*
X0139700Y0077667D01*
X0132300Y0077667D02*
X0129700Y0077667D01*
X0122300Y0077667D02*
X0119700Y0077667D01*
X0112300Y0077667D02*
X0109700Y0077667D01*
X0102300Y0077667D02*
X0099700Y0077667D01*
X0092300Y0077667D02*
X0089700Y0077667D01*
X0101247Y0068971D02*
X0101247Y0068270D01*
X0101247Y0066869D02*
X0101247Y0064067D01*
X0101947Y0064067D02*
X0100546Y0064067D01*
X0098878Y0064067D02*
X0098177Y0064767D01*
X0098177Y0067570D01*
X0097477Y0066869D02*
X0098878Y0066869D01*
X0100546Y0066869D02*
X0101247Y0066869D01*
X0103615Y0066869D02*
X0105717Y0066869D01*
X0106418Y0066168D01*
X0106418Y0064067D01*
X0108219Y0064767D02*
X0108920Y0064067D01*
X0111022Y0064067D01*
X0111022Y0063366D02*
X0110321Y0062665D01*
X0109620Y0062665D01*
X0111022Y0063366D02*
X0111022Y0066869D01*
X0112823Y0066869D02*
X0112823Y0067570D01*
X0113524Y0068270D01*
X0114925Y0068270D01*
X0115626Y0067570D01*
X0115626Y0066869D01*
X0114925Y0066168D01*
X0113524Y0066168D01*
X0112823Y0066869D01*
X0113524Y0066168D02*
X0112823Y0065468D01*
X0112823Y0064767D01*
X0113524Y0064067D01*
X0114925Y0064067D01*
X0115626Y0064767D01*
X0115626Y0065468D01*
X0114925Y0066168D01*
X0117427Y0066168D02*
X0120229Y0066168D01*
X0119529Y0064067D02*
X0119529Y0068270D01*
X0117427Y0066168D01*
X0108219Y0066869D02*
X0108219Y0064767D01*
X0103615Y0064067D02*
X0103615Y0066869D01*
X0095675Y0068270D02*
X0092873Y0068270D01*
X0094274Y0068270D02*
X0094274Y0064067D01*
X0091071Y0064067D02*
X0091071Y0066869D01*
X0089670Y0068270D01*
X0088269Y0066869D01*
X0088269Y0064067D01*
X0088269Y0066168D02*
X0091071Y0066168D01*
X0093500Y0036167D02*
X0098500Y0036167D01*
X0101000Y0033667D01*
X0101000Y0028667D01*
X0098500Y0026167D01*
X0101000Y0023667D01*
X0101000Y0018667D01*
X0098500Y0016167D01*
X0101000Y0013667D01*
X0101000Y0008667D01*
X0098500Y0006167D01*
X0093500Y0006167D01*
X0091000Y0008667D01*
X0091000Y0013667D01*
X0088500Y0016167D01*
X0091000Y0018667D01*
X0091000Y0023667D01*
X0088500Y0026167D01*
X0091000Y0028667D01*
X0091000Y0033667D01*
X0088500Y0036167D01*
X0083500Y0036167D01*
X0081000Y0033667D01*
X0081000Y0028667D01*
X0078500Y0026167D01*
X0081000Y0023667D01*
X0081000Y0018667D01*
X0078500Y0016167D01*
X0081000Y0013667D01*
X0081000Y0008667D01*
X0078500Y0006167D01*
X0073500Y0006167D01*
X0071000Y0008667D01*
X0071000Y0013667D01*
X0068500Y0016167D01*
X0071000Y0018667D01*
X0071000Y0023667D01*
X0068500Y0026167D01*
X0071000Y0028667D01*
X0071000Y0033667D01*
X0068500Y0036167D01*
X0063500Y0036167D01*
X0061000Y0033667D01*
X0061000Y0028667D01*
X0058500Y0026167D01*
X0061000Y0023667D01*
X0061000Y0018667D01*
X0058500Y0016167D01*
X0061000Y0013667D01*
X0061000Y0008667D01*
X0058500Y0006167D01*
X0053500Y0006167D01*
X0051000Y0008667D01*
X0051000Y0013667D01*
X0048500Y0016167D01*
X0051000Y0018667D01*
X0051000Y0023667D01*
X0048500Y0026167D01*
X0051000Y0028667D01*
X0051000Y0033667D01*
X0048500Y0036167D01*
X0043500Y0036167D01*
X0041000Y0033667D01*
X0041000Y0028667D01*
X0038500Y0026167D01*
X0041000Y0023667D01*
X0041000Y0018667D01*
X0038500Y0016167D01*
X0041000Y0013667D01*
X0041000Y0008667D01*
X0038500Y0006167D01*
X0033500Y0006167D01*
X0031000Y0008667D01*
X0031000Y0013667D01*
X0033500Y0016167D01*
X0031000Y0018667D01*
X0031000Y0023667D01*
X0033500Y0026167D01*
X0031000Y0028667D01*
X0031000Y0033667D01*
X0033500Y0036167D01*
X0038500Y0036167D01*
X0041000Y0033667D01*
X0041000Y0028667D01*
X0043500Y0026167D01*
X0041000Y0023667D01*
X0041000Y0018667D01*
X0043500Y0016167D01*
X0041000Y0013667D01*
X0041000Y0008667D01*
X0043500Y0006167D01*
X0048500Y0006167D01*
X0051000Y0008667D01*
X0051000Y0013667D01*
X0053500Y0016167D01*
X0051000Y0018667D01*
X0051000Y0023667D01*
X0053500Y0026167D01*
X0051000Y0028667D01*
X0051000Y0033667D01*
X0053500Y0036167D01*
X0058500Y0036167D01*
X0061000Y0033667D01*
X0061000Y0028667D01*
X0063500Y0026167D01*
X0061000Y0023667D01*
X0061000Y0018667D01*
X0063500Y0016167D01*
X0061000Y0013667D01*
X0061000Y0008667D01*
X0063500Y0006167D01*
X0068500Y0006167D01*
X0071000Y0008667D01*
X0071000Y0013667D01*
X0073500Y0016167D01*
X0071000Y0018667D01*
X0071000Y0023667D01*
X0073500Y0026167D01*
X0071000Y0028667D01*
X0071000Y0033667D01*
X0073500Y0036167D01*
X0078500Y0036167D01*
X0081000Y0033667D01*
X0081000Y0028667D01*
X0083500Y0026167D01*
X0081000Y0023667D01*
X0081000Y0018667D01*
X0083500Y0016167D01*
X0081000Y0013667D01*
X0081000Y0008667D01*
X0083500Y0006167D01*
X0088500Y0006167D01*
X0091000Y0008667D01*
X0091000Y0013667D01*
X0093500Y0016167D01*
X0091000Y0018667D01*
X0091000Y0023667D01*
X0093500Y0026167D01*
X0091000Y0028667D01*
X0091000Y0033667D01*
X0093500Y0036167D01*
X0101000Y0033667D02*
X0103500Y0036167D01*
X0108500Y0036167D01*
X0111000Y0033667D01*
X0111000Y0028667D01*
X0108500Y0026167D01*
X0111000Y0023667D01*
X0111000Y0018667D01*
X0108500Y0016167D01*
X0111000Y0013667D01*
X0111000Y0008667D01*
X0108500Y0006167D01*
X0103500Y0006167D01*
X0101000Y0008667D01*
X0101000Y0013667D01*
X0103500Y0016167D01*
X0101000Y0018667D01*
X0101000Y0023667D01*
X0103500Y0026167D01*
X0101000Y0028667D01*
X0101000Y0033667D01*
X0111000Y0033667D02*
X0111000Y0028667D01*
X0113500Y0026167D01*
X0111000Y0023667D01*
X0111000Y0018667D01*
X0113500Y0016167D01*
X0111000Y0013667D01*
X0111000Y0008667D01*
X0113500Y0006167D01*
X0118500Y0006167D01*
X0121000Y0008667D01*
X0121000Y0013667D01*
X0118500Y0016167D01*
X0121000Y0018667D01*
X0121000Y0023667D01*
X0118500Y0026167D01*
X0121000Y0028667D01*
X0121000Y0033667D01*
X0118500Y0036167D01*
X0113500Y0036167D01*
X0111000Y0033667D01*
X0121000Y0033667D02*
X0121000Y0028667D01*
X0123500Y0026167D01*
X0121000Y0023667D01*
X0121000Y0018667D01*
X0123500Y0016167D01*
X0121000Y0013667D01*
X0121000Y0008667D01*
X0123500Y0006167D01*
X0128500Y0006167D01*
X0131000Y0008667D01*
X0131000Y0013667D01*
X0128500Y0016167D01*
X0131000Y0018667D01*
X0131000Y0023667D01*
X0128500Y0026167D01*
X0131000Y0028667D01*
X0131000Y0033667D01*
X0128500Y0036167D01*
X0123500Y0036167D01*
X0121000Y0033667D01*
X0131000Y0033667D02*
X0131000Y0028667D01*
X0133500Y0026167D01*
X0131000Y0023667D01*
X0131000Y0018667D01*
X0133500Y0016167D01*
X0131000Y0013667D01*
X0131000Y0008667D01*
X0133500Y0006167D01*
X0138500Y0006167D01*
X0141000Y0008667D01*
X0141000Y0013667D01*
X0138500Y0016167D01*
X0141000Y0018667D01*
X0141000Y0023667D01*
X0138500Y0026167D01*
X0141000Y0028667D01*
X0141000Y0033667D01*
X0138500Y0036167D01*
X0133500Y0036167D01*
X0131000Y0033667D01*
X0141000Y0033667D02*
X0141000Y0028667D01*
X0143500Y0026167D01*
X0141000Y0023667D01*
X0141000Y0018667D01*
X0143500Y0016167D01*
X0141000Y0013667D01*
X0141000Y0008667D01*
X0143500Y0006167D01*
X0148500Y0006167D01*
X0151000Y0008667D01*
X0151000Y0013667D01*
X0148500Y0016167D01*
X0151000Y0018667D01*
X0151000Y0023667D01*
X0148500Y0026167D01*
X0151000Y0028667D01*
X0151000Y0033667D01*
X0148500Y0036167D01*
X0143500Y0036167D01*
X0141000Y0033667D01*
X0158500Y0056167D02*
X0163500Y0056167D01*
X0035500Y0053369D02*
X0035500Y0061417D01*
X0032000Y0069417D02*
X0015000Y0069417D01*
X0011500Y0061417D02*
X0011500Y0053488D01*
X0016500Y0057417D02*
X0016502Y0057589D01*
X0016508Y0057760D01*
X0016519Y0057932D01*
X0016534Y0058103D01*
X0016553Y0058274D01*
X0016576Y0058444D01*
X0016603Y0058614D01*
X0016635Y0058783D01*
X0016670Y0058951D01*
X0016710Y0059118D01*
X0016754Y0059284D01*
X0016801Y0059449D01*
X0016853Y0059613D01*
X0016909Y0059775D01*
X0016969Y0059936D01*
X0017033Y0060096D01*
X0017101Y0060254D01*
X0017172Y0060410D01*
X0017247Y0060564D01*
X0017327Y0060717D01*
X0017409Y0060867D01*
X0017496Y0061016D01*
X0017586Y0061162D01*
X0017680Y0061306D01*
X0017777Y0061448D01*
X0017878Y0061587D01*
X0017982Y0061724D01*
X0018089Y0061858D01*
X0018200Y0061989D01*
X0018313Y0062118D01*
X0018430Y0062244D01*
X0018550Y0062367D01*
X0018673Y0062487D01*
X0018799Y0062604D01*
X0018928Y0062717D01*
X0019059Y0062828D01*
X0019193Y0062935D01*
X0019330Y0063039D01*
X0019469Y0063140D01*
X0019611Y0063237D01*
X0019755Y0063331D01*
X0019901Y0063421D01*
X0020050Y0063508D01*
X0020200Y0063590D01*
X0020353Y0063670D01*
X0020507Y0063745D01*
X0020663Y0063816D01*
X0020821Y0063884D01*
X0020981Y0063948D01*
X0021142Y0064008D01*
X0021304Y0064064D01*
X0021468Y0064116D01*
X0021633Y0064163D01*
X0021799Y0064207D01*
X0021966Y0064247D01*
X0022134Y0064282D01*
X0022303Y0064314D01*
X0022473Y0064341D01*
X0022643Y0064364D01*
X0022814Y0064383D01*
X0022985Y0064398D01*
X0023157Y0064409D01*
X0023328Y0064415D01*
X0023500Y0064417D01*
X0023672Y0064415D01*
X0023843Y0064409D01*
X0024015Y0064398D01*
X0024186Y0064383D01*
X0024357Y0064364D01*
X0024527Y0064341D01*
X0024697Y0064314D01*
X0024866Y0064282D01*
X0025034Y0064247D01*
X0025201Y0064207D01*
X0025367Y0064163D01*
X0025532Y0064116D01*
X0025696Y0064064D01*
X0025858Y0064008D01*
X0026019Y0063948D01*
X0026179Y0063884D01*
X0026337Y0063816D01*
X0026493Y0063745D01*
X0026647Y0063670D01*
X0026800Y0063590D01*
X0026950Y0063508D01*
X0027099Y0063421D01*
X0027245Y0063331D01*
X0027389Y0063237D01*
X0027531Y0063140D01*
X0027670Y0063039D01*
X0027807Y0062935D01*
X0027941Y0062828D01*
X0028072Y0062717D01*
X0028201Y0062604D01*
X0028327Y0062487D01*
X0028450Y0062367D01*
X0028570Y0062244D01*
X0028687Y0062118D01*
X0028800Y0061989D01*
X0028911Y0061858D01*
X0029018Y0061724D01*
X0029122Y0061587D01*
X0029223Y0061448D01*
X0029320Y0061306D01*
X0029414Y0061162D01*
X0029504Y0061016D01*
X0029591Y0060867D01*
X0029673Y0060717D01*
X0029753Y0060564D01*
X0029828Y0060410D01*
X0029899Y0060254D01*
X0029967Y0060096D01*
X0030031Y0059936D01*
X0030091Y0059775D01*
X0030147Y0059613D01*
X0030199Y0059449D01*
X0030246Y0059284D01*
X0030290Y0059118D01*
X0030330Y0058951D01*
X0030365Y0058783D01*
X0030397Y0058614D01*
X0030424Y0058444D01*
X0030447Y0058274D01*
X0030466Y0058103D01*
X0030481Y0057932D01*
X0030492Y0057760D01*
X0030498Y0057589D01*
X0030500Y0057417D01*
X0030498Y0057245D01*
X0030492Y0057074D01*
X0030481Y0056902D01*
X0030466Y0056731D01*
X0030447Y0056560D01*
X0030424Y0056390D01*
X0030397Y0056220D01*
X0030365Y0056051D01*
X0030330Y0055883D01*
X0030290Y0055716D01*
X0030246Y0055550D01*
X0030199Y0055385D01*
X0030147Y0055221D01*
X0030091Y0055059D01*
X0030031Y0054898D01*
X0029967Y0054738D01*
X0029899Y0054580D01*
X0029828Y0054424D01*
X0029753Y0054270D01*
X0029673Y0054117D01*
X0029591Y0053967D01*
X0029504Y0053818D01*
X0029414Y0053672D01*
X0029320Y0053528D01*
X0029223Y0053386D01*
X0029122Y0053247D01*
X0029018Y0053110D01*
X0028911Y0052976D01*
X0028800Y0052845D01*
X0028687Y0052716D01*
X0028570Y0052590D01*
X0028450Y0052467D01*
X0028327Y0052347D01*
X0028201Y0052230D01*
X0028072Y0052117D01*
X0027941Y0052006D01*
X0027807Y0051899D01*
X0027670Y0051795D01*
X0027531Y0051694D01*
X0027389Y0051597D01*
X0027245Y0051503D01*
X0027099Y0051413D01*
X0026950Y0051326D01*
X0026800Y0051244D01*
X0026647Y0051164D01*
X0026493Y0051089D01*
X0026337Y0051018D01*
X0026179Y0050950D01*
X0026019Y0050886D01*
X0025858Y0050826D01*
X0025696Y0050770D01*
X0025532Y0050718D01*
X0025367Y0050671D01*
X0025201Y0050627D01*
X0025034Y0050587D01*
X0024866Y0050552D01*
X0024697Y0050520D01*
X0024527Y0050493D01*
X0024357Y0050470D01*
X0024186Y0050451D01*
X0024015Y0050436D01*
X0023843Y0050425D01*
X0023672Y0050419D01*
X0023500Y0050417D01*
X0023328Y0050419D01*
X0023157Y0050425D01*
X0022985Y0050436D01*
X0022814Y0050451D01*
X0022643Y0050470D01*
X0022473Y0050493D01*
X0022303Y0050520D01*
X0022134Y0050552D01*
X0021966Y0050587D01*
X0021799Y0050627D01*
X0021633Y0050671D01*
X0021468Y0050718D01*
X0021304Y0050770D01*
X0021142Y0050826D01*
X0020981Y0050886D01*
X0020821Y0050950D01*
X0020663Y0051018D01*
X0020507Y0051089D01*
X0020353Y0051164D01*
X0020200Y0051244D01*
X0020050Y0051326D01*
X0019901Y0051413D01*
X0019755Y0051503D01*
X0019611Y0051597D01*
X0019469Y0051694D01*
X0019330Y0051795D01*
X0019193Y0051899D01*
X0019059Y0052006D01*
X0018928Y0052117D01*
X0018799Y0052230D01*
X0018673Y0052347D01*
X0018550Y0052467D01*
X0018430Y0052590D01*
X0018313Y0052716D01*
X0018200Y0052845D01*
X0018089Y0052976D01*
X0017982Y0053110D01*
X0017878Y0053247D01*
X0017777Y0053386D01*
X0017680Y0053528D01*
X0017586Y0053672D01*
X0017496Y0053818D01*
X0017409Y0053967D01*
X0017327Y0054117D01*
X0017247Y0054270D01*
X0017172Y0054424D01*
X0017101Y0054580D01*
X0017033Y0054738D01*
X0016969Y0054898D01*
X0016909Y0055059D01*
X0016853Y0055221D01*
X0016801Y0055385D01*
X0016754Y0055550D01*
X0016710Y0055716D01*
X0016670Y0055883D01*
X0016635Y0056051D01*
X0016603Y0056220D01*
X0016576Y0056390D01*
X0016553Y0056560D01*
X0016534Y0056731D01*
X0016519Y0056902D01*
X0016508Y0057074D01*
X0016502Y0057245D01*
X0016500Y0057417D01*
X0015000Y0045417D02*
X0032000Y0045417D01*
D12*
X0071000Y0043667D02*
X0071000Y0041167D01*
X0071000Y0043667D02*
X0108500Y0043667D01*
X0132250Y0043667D02*
X0151000Y0043667D01*
X0151000Y0041167D01*
X0101000Y0003667D02*
X0087250Y0003667D01*
X0073500Y0003667D02*
X0061000Y0003667D01*
D13*
X0027959Y0039467D02*
X0027959Y0042870D01*
X0026825Y0042870D02*
X0029093Y0042870D01*
X0025410Y0042870D02*
X0023142Y0042870D01*
X0023142Y0039467D01*
X0025410Y0039467D01*
X0024276Y0041168D02*
X0023142Y0041168D01*
X0021727Y0040601D02*
X0021727Y0040034D01*
X0021160Y0039467D01*
X0020026Y0039467D01*
X0019458Y0040034D01*
X0020026Y0041168D02*
X0019458Y0041735D01*
X0019458Y0042302D01*
X0020026Y0042870D01*
X0021160Y0042870D01*
X0021727Y0042302D01*
X0021160Y0041168D02*
X0021727Y0040601D01*
X0021160Y0041168D02*
X0020026Y0041168D01*
X0018044Y0039467D02*
X0015775Y0039467D01*
X0015775Y0042870D01*
X0018044Y0042870D01*
X0016910Y0041168D02*
X0015775Y0041168D01*
X0014361Y0041168D02*
X0013794Y0040601D01*
X0012092Y0040601D01*
X0012092Y0039467D02*
X0012092Y0042870D01*
X0013794Y0042870D01*
X0014361Y0042302D01*
X0014361Y0041168D01*
X0013226Y0040601D02*
X0014361Y0039467D01*
X0110864Y0043217D02*
X0110864Y0045485D01*
X0111999Y0046620D01*
X0113133Y0045485D01*
X0113133Y0043217D01*
X0114548Y0043217D02*
X0114548Y0045485D01*
X0116249Y0045485D01*
X0116816Y0044918D01*
X0116816Y0043217D01*
X0118231Y0043784D02*
X0118798Y0044351D01*
X0120499Y0044351D01*
X0120499Y0044918D02*
X0120499Y0043217D01*
X0118798Y0043217D01*
X0118231Y0043784D01*
X0118798Y0045485D02*
X0119932Y0045485D01*
X0120499Y0044918D01*
X0121914Y0043217D02*
X0123048Y0043217D01*
X0122481Y0043217D02*
X0122481Y0046620D01*
X0121914Y0046620D01*
X0124369Y0044918D02*
X0124369Y0043784D01*
X0124936Y0043217D01*
X0126071Y0043217D01*
X0126638Y0043784D01*
X0126638Y0044918D01*
X0126071Y0045485D01*
X0124936Y0045485D01*
X0124369Y0044918D01*
X0128052Y0044918D02*
X0128052Y0043784D01*
X0128620Y0043217D01*
X0130321Y0043217D01*
X0130321Y0042650D02*
X0130321Y0045485D01*
X0128620Y0045485D01*
X0128052Y0044918D01*
X0129187Y0042082D02*
X0129754Y0042082D01*
X0130321Y0042650D01*
X0113133Y0044918D02*
X0110864Y0044918D01*
X0113659Y0094467D02*
X0113092Y0095034D01*
X0113092Y0095601D01*
X0113659Y0096168D01*
X0114793Y0096168D01*
X0115360Y0095601D01*
X0115360Y0095034D01*
X0114793Y0094467D01*
X0113659Y0094467D01*
X0113659Y0096168D02*
X0113092Y0096735D01*
X0113092Y0097302D01*
X0113659Y0097870D01*
X0114793Y0097870D01*
X0115360Y0097302D01*
X0115360Y0096735D01*
X0114793Y0096168D01*
X0116775Y0096168D02*
X0119044Y0096168D01*
X0118476Y0094467D02*
X0118476Y0097870D01*
X0116775Y0096168D01*
X0124141Y0096735D02*
X0124708Y0096168D01*
X0125843Y0096168D01*
X0126410Y0095601D01*
X0126410Y0095034D01*
X0125843Y0094467D01*
X0124708Y0094467D01*
X0124141Y0095034D01*
X0124141Y0096735D02*
X0124141Y0097302D01*
X0124708Y0097870D01*
X0125843Y0097870D01*
X0126410Y0097302D01*
X0127824Y0096168D02*
X0128392Y0096735D01*
X0129526Y0096735D01*
X0130093Y0096168D01*
X0130093Y0095601D01*
X0127824Y0095601D01*
X0127824Y0095034D02*
X0127824Y0096168D01*
X0127824Y0095034D02*
X0128392Y0094467D01*
X0129526Y0094467D01*
X0131508Y0094467D02*
X0131508Y0096735D01*
X0132642Y0096735D02*
X0133209Y0096735D01*
X0132642Y0096735D02*
X0131508Y0095601D01*
X0134577Y0096735D02*
X0135711Y0094467D01*
X0136845Y0096735D01*
X0138260Y0096168D02*
X0138260Y0095034D01*
X0138827Y0094467D01*
X0139961Y0094467D01*
X0140529Y0095034D01*
X0140529Y0096168D01*
X0139961Y0096735D01*
X0138827Y0096735D01*
X0138260Y0096168D01*
X0107994Y0096168D02*
X0107994Y0095601D01*
X0105726Y0095601D01*
X0105726Y0095034D02*
X0105726Y0096168D01*
X0106293Y0096735D01*
X0107427Y0096735D01*
X0107994Y0096168D01*
X0106293Y0094467D02*
X0105726Y0095034D01*
X0106293Y0094467D02*
X0107427Y0094467D01*
X0104404Y0094467D02*
X0103270Y0094467D01*
X0103837Y0094467D02*
X0103837Y0096735D01*
X0103270Y0096735D01*
X0103837Y0097870D02*
X0103837Y0098437D01*
X0101856Y0096735D02*
X0099587Y0094467D01*
X0098266Y0094467D02*
X0097132Y0094467D01*
X0097699Y0094467D02*
X0097699Y0096735D01*
X0097132Y0096735D01*
X0097699Y0097870D02*
X0097699Y0098437D01*
X0095717Y0097302D02*
X0095717Y0096168D01*
X0095150Y0095601D01*
X0093448Y0095601D01*
X0093448Y0094467D02*
X0093448Y0097870D01*
X0095150Y0097870D01*
X0095717Y0097302D01*
X0099587Y0096735D02*
X0101856Y0094467D01*
X0084668Y0095601D02*
X0082399Y0095601D01*
X0082399Y0095034D02*
X0082399Y0096168D01*
X0082966Y0096735D01*
X0084100Y0096735D01*
X0084668Y0096168D01*
X0084668Y0095601D01*
X0084100Y0094467D02*
X0082966Y0094467D01*
X0082399Y0095034D01*
X0081078Y0094467D02*
X0079944Y0094467D01*
X0080511Y0094467D02*
X0080511Y0097870D01*
X0079944Y0097870D01*
X0078529Y0096168D02*
X0077962Y0096735D01*
X0076260Y0096735D01*
X0076260Y0097870D02*
X0076260Y0094467D01*
X0077962Y0094467D01*
X0078529Y0095034D01*
X0078529Y0096168D01*
X0074846Y0096168D02*
X0074846Y0094467D01*
X0073144Y0094467D01*
X0072577Y0095034D01*
X0073144Y0095601D01*
X0074846Y0095601D01*
X0074846Y0096168D02*
X0074279Y0096735D01*
X0073144Y0096735D01*
X0071209Y0096735D02*
X0069508Y0095601D01*
X0071209Y0094467D01*
X0069508Y0094467D02*
X0069508Y0097870D01*
X0068093Y0096735D02*
X0066392Y0096735D01*
X0065825Y0096168D01*
X0065825Y0095034D01*
X0066392Y0094467D01*
X0068093Y0094467D01*
X0064410Y0094467D02*
X0064410Y0096168D01*
X0063843Y0096735D01*
X0062709Y0096735D01*
X0062709Y0095601D02*
X0064410Y0095601D01*
X0064410Y0094467D02*
X0062709Y0094467D01*
X0062142Y0095034D01*
X0062709Y0095601D01*
X0060727Y0096168D02*
X0058459Y0096168D01*
X0058459Y0094467D02*
X0058459Y0097870D01*
X0060727Y0097870D02*
X0060727Y0094467D01*
X0053408Y0096735D02*
X0052840Y0096735D01*
X0051706Y0095601D01*
X0051706Y0094467D02*
X0051706Y0096735D01*
X0050292Y0096168D02*
X0050292Y0095601D01*
X0048023Y0095601D01*
X0048023Y0095034D02*
X0048023Y0096168D01*
X0048590Y0096735D01*
X0049724Y0096735D01*
X0050292Y0096168D01*
X0048590Y0094467D02*
X0048023Y0095034D01*
X0048590Y0094467D02*
X0049724Y0094467D01*
X0046608Y0095034D02*
X0046041Y0094467D01*
X0044340Y0094467D01*
X0044907Y0095601D02*
X0044340Y0096168D01*
X0044907Y0096735D01*
X0046608Y0096735D01*
X0046041Y0095601D02*
X0044907Y0095601D01*
X0046041Y0095601D02*
X0046608Y0095034D01*
X0042925Y0095034D02*
X0042925Y0097870D01*
X0040657Y0097870D02*
X0040657Y0095034D01*
X0041224Y0094467D01*
X0042358Y0094467D01*
X0042925Y0095034D01*
D14*
X0029277Y0011168D02*
X0026808Y0011168D01*
X0028043Y0019934D02*
X0028043Y0022403D01*
X0029277Y0021168D02*
X0026808Y0021168D01*
X0031730Y0038467D02*
X0031730Y0041369D01*
X0033181Y0041369D01*
X0033665Y0040885D01*
X0033665Y0039918D01*
X0033181Y0039434D01*
X0031730Y0039434D01*
X0032698Y0039434D02*
X0033665Y0038467D01*
X0034677Y0038950D02*
X0035160Y0038467D01*
X0036128Y0038467D01*
X0036612Y0038950D01*
X0036612Y0039434D01*
X0036128Y0039918D01*
X0035160Y0039918D01*
X0034677Y0040402D01*
X0034677Y0040885D01*
X0035160Y0041369D01*
X0036128Y0041369D01*
X0036612Y0040885D01*
X0037623Y0041369D02*
X0039558Y0041369D01*
X0038591Y0041369D02*
X0038591Y0038467D01*
X0153058Y0021168D02*
X0155527Y0021168D01*
X0154293Y0022403D02*
X0154293Y0019934D01*
X0153058Y0011168D02*
X0155527Y0011168D01*
D15*
X0070068Y0063351D02*
X0069334Y0062617D01*
X0068600Y0063351D01*
X0068600Y0064819D01*
X0067858Y0063718D02*
X0066390Y0063718D01*
X0067124Y0064452D02*
X0067124Y0062984D01*
X0070068Y0063351D02*
X0070068Y0064819D01*
X0061912Y0064819D02*
X0061178Y0064819D01*
X0061545Y0064819D02*
X0061545Y0062617D01*
X0061178Y0062617D02*
X0061912Y0062617D01*
X0060436Y0062984D02*
X0060436Y0063351D01*
X0060069Y0063718D01*
X0059335Y0063718D01*
X0058968Y0064085D01*
X0058968Y0064452D01*
X0059335Y0064819D01*
X0060069Y0064819D01*
X0060436Y0064452D01*
X0060436Y0062984D02*
X0060069Y0062617D01*
X0059335Y0062617D01*
X0058968Y0062984D01*
X0058226Y0062984D02*
X0058226Y0064452D01*
X0057859Y0064819D01*
X0057125Y0064819D01*
X0056758Y0064452D01*
X0056758Y0062984D01*
X0057125Y0062617D01*
X0057859Y0062617D01*
X0058226Y0062984D01*
X0056016Y0062617D02*
X0056016Y0064819D01*
X0055282Y0064085D01*
X0054549Y0064819D01*
X0054549Y0062617D01*
X0051173Y0062984D02*
X0051173Y0064452D01*
X0050806Y0064819D01*
X0049705Y0064819D01*
X0049705Y0062617D01*
X0050806Y0062617D01*
X0051173Y0062984D01*
X0048963Y0062617D02*
X0048963Y0064819D01*
X0047495Y0064819D02*
X0048963Y0062617D01*
X0047495Y0062617D02*
X0047495Y0064819D01*
X0046753Y0064452D02*
X0046386Y0064819D01*
X0045652Y0064819D01*
X0045285Y0064452D01*
X0045285Y0062984D01*
X0045652Y0062617D01*
X0046386Y0062617D01*
X0046753Y0062984D01*
X0046753Y0063718D01*
X0046019Y0063718D01*
X0045285Y0087517D02*
X0045285Y0089719D01*
X0046386Y0089719D01*
X0046753Y0089352D01*
X0046753Y0088618D01*
X0046386Y0088251D01*
X0045285Y0088251D01*
X0046019Y0088251D02*
X0046753Y0087517D01*
X0047495Y0087884D02*
X0047862Y0087517D01*
X0048596Y0087517D01*
X0048963Y0087884D01*
X0048963Y0088251D01*
X0048596Y0088618D01*
X0047862Y0088618D01*
X0047495Y0088985D01*
X0047495Y0089352D01*
X0047862Y0089719D01*
X0048596Y0089719D01*
X0048963Y0089352D01*
X0049705Y0089719D02*
X0051173Y0089719D01*
X0050439Y0089719D02*
X0050439Y0087517D01*
X0055285Y0087884D02*
X0055652Y0087517D01*
X0056386Y0087517D01*
X0056753Y0087884D01*
X0056753Y0088251D01*
X0056386Y0088618D01*
X0055652Y0088618D01*
X0055285Y0088985D01*
X0055285Y0089352D01*
X0055652Y0089719D01*
X0056386Y0089719D01*
X0056753Y0089352D01*
X0057495Y0089352D02*
X0057495Y0087884D01*
X0057862Y0087517D01*
X0058596Y0087517D01*
X0058963Y0087884D01*
X0059705Y0088251D02*
X0061173Y0089719D01*
X0059705Y0089719D02*
X0059705Y0087517D01*
X0060072Y0088618D02*
X0061173Y0087517D01*
X0058963Y0089352D02*
X0058596Y0089719D01*
X0057862Y0089719D01*
X0057495Y0089352D01*
X0064549Y0089719D02*
X0064549Y0087517D01*
X0066016Y0087517D02*
X0066016Y0089719D01*
X0065282Y0088985D01*
X0064549Y0089719D01*
X0066758Y0089719D02*
X0067492Y0089719D01*
X0067125Y0089719D02*
X0067125Y0087517D01*
X0066758Y0087517D02*
X0067492Y0087517D01*
X0068232Y0087884D02*
X0068599Y0087517D01*
X0069333Y0087517D01*
X0069700Y0087884D01*
X0069700Y0088251D01*
X0069333Y0088618D01*
X0068599Y0088618D01*
X0068232Y0088985D01*
X0068232Y0089352D01*
X0068599Y0089719D01*
X0069333Y0089719D01*
X0069700Y0089352D01*
X0070442Y0089352D02*
X0070442Y0087884D01*
X0070809Y0087517D01*
X0071542Y0087517D01*
X0071909Y0087884D01*
X0071909Y0089352D01*
X0071542Y0089719D01*
X0070809Y0089719D01*
X0070442Y0089352D01*
D16*
X0074358Y0041720D02*
X0076760Y0041720D01*
X0076760Y0041119D01*
X0074358Y0038717D01*
X0074358Y0038117D01*
X0066760Y0038717D02*
X0066160Y0038117D01*
X0064959Y0038117D01*
X0064358Y0038717D01*
X0064358Y0039318D01*
X0064959Y0039918D01*
X0066160Y0039918D01*
X0066760Y0039318D01*
X0066760Y0038717D01*
X0066160Y0039918D02*
X0066760Y0040519D01*
X0066760Y0041119D01*
X0066160Y0041720D01*
X0064959Y0041720D01*
X0064358Y0041119D01*
X0064358Y0040519D01*
X0064959Y0039918D01*
X0056760Y0039918D02*
X0054959Y0039918D01*
X0054358Y0040519D01*
X0054358Y0041119D01*
X0054959Y0041720D01*
X0056160Y0041720D01*
X0056760Y0041119D01*
X0056760Y0038717D01*
X0056160Y0038117D01*
X0054959Y0038117D01*
X0054358Y0038717D01*
X0048602Y0038717D02*
X0048602Y0041119D01*
X0046200Y0038717D01*
X0046801Y0038117D01*
X0048002Y0038117D01*
X0048602Y0038717D01*
X0046200Y0038717D02*
X0046200Y0041119D01*
X0046801Y0041720D01*
X0048002Y0041720D01*
X0048602Y0041119D01*
X0043718Y0041720D02*
X0043718Y0038117D01*
X0042517Y0038117D02*
X0044919Y0038117D01*
X0042517Y0040519D02*
X0043718Y0041720D01*
X0084358Y0039918D02*
X0084358Y0038717D01*
X0084959Y0038117D01*
X0086160Y0038117D01*
X0086760Y0038717D01*
X0086760Y0039318D01*
X0086160Y0039918D01*
X0084358Y0039918D01*
X0085559Y0041119D01*
X0086760Y0041720D01*
X0094358Y0041720D02*
X0094358Y0039918D01*
X0095559Y0040519D01*
X0096160Y0040519D01*
X0096760Y0039918D01*
X0096760Y0038717D01*
X0096160Y0038117D01*
X0094959Y0038117D01*
X0094358Y0038717D01*
X0094358Y0041720D02*
X0096760Y0041720D01*
X0104358Y0039918D02*
X0106760Y0039918D01*
X0106160Y0038117D02*
X0106160Y0041720D01*
X0104358Y0039918D01*
X0114358Y0038717D02*
X0114959Y0038117D01*
X0116160Y0038117D01*
X0116760Y0038717D01*
X0116760Y0039318D01*
X0116160Y0039918D01*
X0115559Y0039918D01*
X0116160Y0039918D02*
X0116760Y0040519D01*
X0116760Y0041119D01*
X0116160Y0041720D01*
X0114959Y0041720D01*
X0114358Y0041119D01*
X0124358Y0041119D02*
X0124959Y0041720D01*
X0126160Y0041720D01*
X0126760Y0041119D01*
X0126760Y0040519D01*
X0124358Y0038117D01*
X0126760Y0038117D01*
X0134358Y0038117D02*
X0136760Y0038117D01*
X0135559Y0038117D02*
X0135559Y0041720D01*
X0134358Y0040519D01*
X0144358Y0041119D02*
X0144358Y0038717D01*
X0146760Y0041119D01*
X0146760Y0038717D01*
X0146160Y0038117D01*
X0144959Y0038117D01*
X0144358Y0038717D01*
X0144358Y0041119D02*
X0144959Y0041720D01*
X0146160Y0041720D01*
X0146760Y0041119D01*
D17*
X0166049Y0056520D02*
X0166299Y0056270D01*
X0167300Y0056270D01*
X0167550Y0056520D01*
X0167550Y0057021D01*
X0167300Y0057271D01*
X0167550Y0057743D02*
X0167550Y0058744D01*
X0167550Y0058244D02*
X0166049Y0058244D01*
X0166549Y0057743D01*
X0166299Y0057271D02*
X0166049Y0057021D01*
X0166049Y0056520D01*
M02*
